<svg width="50" height="51" viewBox="0 0 50 51" fill="none" xmlns="http://www.w3.org/2000/svg">
<circle cx="25" cy="25.3243" r="25" fill="#D28179"/>
<path d="M17.9056 38.6843C16.0096 38.6843 14.5576 38.1443 13.5496 37.0643C12.5656 35.9843 12.0736 34.4603 12.0736 32.4923V18.9563C12.0736 16.9883 12.5656 15.4643 13.5496 14.3843C14.5576 13.3043 16.0096 12.7643 17.9056 12.7643C19.8016 12.7643 21.2416 13.3043 22.2256 14.3843C23.2336 15.4643 23.7376 16.9883 23.7376 18.9563V21.6203H19.9936V18.7043C19.9936 17.1443 19.3336 16.3643 18.0136 16.3643C16.6936 16.3643 16.0336 17.1443 16.0336 18.7043V32.7803C16.0336 34.3163 16.6936 35.0843 18.0136 35.0843C19.3336 35.0843 19.9936 34.3163 19.9936 32.7803V28.9283H23.7376V32.4923C23.7376 34.4603 23.2336 35.9843 22.2256 37.0643C21.2416 38.1443 19.8016 38.6843 17.9056 38.6843ZM26.1069 13.1243H31.9749C34.0149 13.1243 35.5029 13.6043 36.4389 14.5643C37.3749 15.5003 37.8429 16.9523 37.8429 18.9203V20.4683C37.8429 23.0843 36.9789 24.7403 35.2509 25.4363V25.5083C36.2109 25.7963 36.8829 26.3843 37.2669 27.2723C37.6749 28.1603 37.8789 29.3483 37.8789 30.8363V35.2643C37.8789 35.9843 37.9029 36.5723 37.9509 37.0283C37.9989 37.4603 38.1189 37.8923 38.3109 38.3243H34.2789C34.1349 37.9163 34.0389 37.5323 33.9909 37.1723C33.9429 36.8123 33.9189 36.1643 33.9189 35.2283V30.6203C33.9189 29.4683 33.7269 28.6643 33.3429 28.2083C32.9829 27.7523 32.3469 27.5243 31.4349 27.5243H30.0669V38.3243H26.1069V13.1243ZM31.5069 23.9243C32.2989 23.9243 32.8869 23.7203 33.2709 23.3123C33.6789 22.9043 33.8829 22.2203 33.8829 21.2603V19.3163C33.8829 18.4043 33.7149 17.7443 33.3789 17.3363C33.0669 16.9283 32.5629 16.7243 31.8669 16.7243H30.0669V23.9243H31.5069Z" fill="white"/>
</svg>
