<svg width="62" height="64" viewBox="0 0 62 64" fill="none" xmlns="http://www.w3.org/2000/svg">
<path d="M61.653 32C61.653 49.6731 47.8515 64 30.8265 64C13.8015 64 0 49.6731 0 32C0 14.3269 13.8015 0 30.8265 0C47.8515 0 61.653 14.3269 61.653 32Z" fill="#FF7F50"/>
<g clip-path="url(#clip0_787_1142)">
<path d="M50.4801 28.0211C49.9739 27.2989 49.1787 26.8566 48.2983 26.8078C46.9614 26.7336 45.7393 27.6118 45.3894 28.8958C45.221 29.5142 44.9306 30.1573 44.4903 30.8803C43.81 30.2282 43.4616 29.4247 43.3983 28.3704C43.3523 27.6026 43.01 26.8986 42.4345 26.3882C41.8588 25.8775 41.1178 25.6217 40.3514 25.6683C39.5836 25.7143 38.8797 26.0567 38.3693 26.6322C37.859 27.2077 37.6033 27.9475 37.6494 28.7152C37.7956 31.1514 38.731 33.2721 40.3691 34.9054C39.8252 35.22 39.2434 35.5048 38.6277 35.7578C38.3514 34.7356 38.0214 33.7542 37.6999 32.7977C36.9828 30.6642 36.3054 28.649 36.2372 26.454C36.2141 25.7099 36.2293 24.8234 36.2822 23.8119C38.7042 23.5485 41.7713 22.7733 43.8865 20.6713C44.4321 20.1291 44.7339 19.407 44.7364 18.6378C44.7388 17.8687 44.4414 17.1446 43.8993 16.5991C43.3572 16.0534 42.635 15.7516 41.8658 15.7493C41.8627 15.7493 41.8597 15.7493 41.8567 15.7493C41.0909 15.7493 40.3704 16.0463 39.8271 16.5863C39.2402 17.1694 38.2 17.6237 36.8444 17.898C37.033 16.4178 37.1947 15.3827 37.203 15.3307C37.4515 13.7626 36.378 12.2845 34.81 12.0358C33.2412 11.7871 31.7635 12.8606 31.5148 14.4287C31.4665 14.7329 30.3349 21.9312 30.4809 26.6327C30.5756 29.6779 31.4604 32.3105 32.2414 34.6338C33.2242 37.5575 33.9835 39.8167 33.2461 42.348C32.3328 40.2372 31.2017 38.2321 29.8712 36.3676C29.1284 35.3267 28.3489 34.2804 27.5213 33.1694C25.8469 30.922 24.1207 28.6051 22.749 26.3719C24.6972 25.0193 26.8648 22.3726 27.4713 17.2155C27.6566 15.6386 26.5245 14.2047 24.9476 14.0193C23.3697 13.8339 21.9368 14.9663 21.7515 16.5429C21.4986 18.6934 20.8935 20.0037 20.3072 20.7937C20.2716 20.5736 20.2491 20.3627 20.2399 20.162C20.2043 19.3923 19.8712 18.683 19.302 18.1647C18.7336 17.6473 17.9988 17.383 17.2303 17.4184C15.6442 17.4917 14.4135 18.8417 14.4866 20.4278C14.6828 24.6731 17.4449 29.0998 20.4891 33.3317C18.8694 33.2512 16.9431 32.9165 15.9346 31.8732C15.3985 31.3185 14.6785 31.0067 13.907 30.9952C13.1386 30.9826 12.4065 31.274 11.854 31.8126C11.3122 32.3408 11.0098 33.0558 11.0026 33.8259C10.9953 34.6131 11.3079 35.385 11.8604 35.944C13.8579 37.9648 16.8876 39.0293 20.8655 39.1081C22.3338 39.1369 23.656 39.0228 24.5997 38.9039C24.8107 39.1935 25.0033 39.4605 25.1833 39.7125C28.7052 44.6481 29.5036 49.4972 29.5103 49.5388C29.6708 50.6322 30.4573 51.5485 31.514 51.873C31.7884 51.9571 32.0726 51.9999 32.3589 51.9999C33.1643 51.9999 33.9383 51.6593 34.4825 51.0657C35.2203 50.2605 35.8797 49.4448 36.4479 48.6346C37.0572 48.77 37.8371 48.9021 38.689 48.9459C38.8916 48.9563 39.0942 48.9615 39.2912 48.9615C42.8294 48.9615 44.7033 47.3024 45.6522 45.9106C46.0855 45.2751 46.2454 44.5089 46.1025 43.7531C45.9595 42.9973 45.5308 42.3425 44.8954 41.9093C44.26 41.4758 43.4938 41.316 42.738 41.4589C41.9822 41.6019 41.3273 42.0305 40.8939 42.6661C40.6182 43.0705 39.9329 43.2515 38.9659 43.1908C39.0807 42.6883 39.1656 42.1804 39.22 41.6708C44.9049 39.8247 47.8682 36.4604 49.3608 33.9259C50.0058 32.8305 50.5155 31.6695 50.8753 30.4755C51.1285 29.6355 50.9845 28.7408 50.4801 28.0211ZM49.349 30.0158C49.0258 31.0882 48.5676 32.1317 47.9869 33.1175C46.5942 35.4825 43.7729 38.6496 38.2423 40.3066C37.923 40.4023 37.6969 40.6868 37.6758 41.0196C37.6201 41.9006 37.4594 42.7811 37.1983 43.6365C37.1316 43.8548 37.1618 44.0912 37.2812 44.2857C37.4005 44.4803 37.5975 44.6143 37.8223 44.6539C39.9514 45.0286 41.4686 44.6516 42.2101 43.564C42.4036 43.2801 42.6962 43.0887 43.0337 43.0248C43.3711 42.9609 43.7132 43.0323 43.9971 43.2258C44.2809 43.4193 44.4724 43.7117 44.5362 44.0493C44.6001 44.3867 44.5287 44.7289 44.3353 45.0127C43.6027 46.0871 42.1328 47.3677 39.2908 47.3677C39.1209 47.3677 38.9458 47.3632 38.7703 47.3542C37.7694 47.3028 36.8763 47.1113 36.3033 46.9597C35.9723 46.8722 35.6229 47.0056 35.4346 47.2911C34.8457 48.1835 34.1299 49.0911 33.3071 49.9891C33.0643 50.2542 32.7186 50.4064 32.3589 50.4064C32.2312 50.4064 32.1043 50.3872 31.9818 50.3496C31.5099 50.2048 31.1586 49.7957 31.0862 49.3027C31.0783 49.251 30.2523 44.0727 26.4804 38.7869C26.2201 38.4221 25.9337 38.027 25.6052 37.5793C25.4537 37.373 25.2142 37.2539 24.9629 37.2539C24.9248 37.2539 24.8865 37.2567 24.8479 37.2621C23.9626 37.3907 22.5223 37.5464 20.8966 37.5146C17.3481 37.4443 14.6891 36.539 12.9935 34.8235C12.7373 34.5644 12.5925 34.2062 12.5959 33.8406C12.5991 33.4981 12.7306 33.1832 12.9662 32.9535C13.213 32.713 13.5405 32.5824 13.8831 32.5884C14.2275 32.5935 14.5491 32.7327 14.7885 32.9805C16.4911 34.7417 19.6978 35.0153 22.0883 34.9343C22.3837 34.9244 22.6494 34.7516 22.7783 34.4857C22.9073 34.2197 22.8785 33.9043 22.7035 33.6661C19.6006 29.4435 16.2738 24.5842 16.0783 20.354C16.0456 19.6456 16.5953 19.0427 17.3045 19.0099C17.6464 18.9941 17.9754 19.1117 18.2288 19.3425C18.4831 19.5741 18.6318 19.891 18.6477 20.2351C18.6804 20.9456 18.8382 21.7347 19.1162 22.5807C19.1948 22.8196 19.3814 23.0074 19.62 23.0874C19.8586 23.1674 20.1205 23.13 20.3273 22.9867C21.4551 22.2043 22.8923 20.4836 23.3339 16.7286C23.4167 16.0244 24.0569 15.519 24.7613 15.6015C25.4655 15.6844 25.971 16.3247 25.8883 17.0289C25.2867 22.1444 23.0457 24.4153 21.2718 25.4195C21.0861 25.5246 20.9503 25.6999 20.8949 25.9059C20.8393 26.112 20.8688 26.3315 20.9767 26.5157C22.4473 29.0262 24.3769 31.6162 26.2455 34.1241C27.0656 35.2251 27.8405 36.2651 28.5738 37.2927C30.2004 39.5722 31.5135 42.0728 32.4765 44.725C32.5836 45.0199 32.8537 45.2245 33.1666 45.2477C33.4778 45.2711 33.7768 45.1084 33.9262 44.8325C36.039 40.9304 34.979 37.777 33.7514 34.1249C33.0057 31.9067 32.1607 29.3927 32.0733 26.5827C31.9319 22.0299 33.041 14.9759 33.0883 14.6779C33.1994 13.9776 33.8591 13.4981 34.5598 13.6093C35.26 13.7204 35.7394 14.3804 35.6281 15.0826C35.6178 15.1481 35.3737 16.7102 35.1327 18.7595C35.1042 19.0027 35.1888 19.2453 35.3625 19.4179C35.5361 19.5905 35.7793 19.6737 36.0222 19.6434C37.5801 19.45 39.6995 18.9587 40.9498 17.7162C41.1926 17.4751 41.5142 17.3424 41.8563 17.3424C41.8577 17.3424 41.8591 17.3424 41.8604 17.3424C42.2038 17.3435 42.5263 17.4783 42.7685 17.722C43.0106 17.9656 43.1434 18.289 43.1422 18.6324C43.1411 18.9759 43.0063 19.2984 42.7627 19.5406C40.6797 21.6106 37.2978 22.1492 35.4671 22.286C35.0711 22.3156 34.7573 22.6324 34.7315 23.0289C34.6436 24.3769 34.6141 25.5458 34.6438 26.5031C34.7193 28.9333 35.4331 31.0567 36.189 33.3059C36.5897 34.4977 37.004 35.7302 37.2958 36.9987C37.3466 37.2196 37.489 37.4082 37.6874 37.5178C37.8858 37.6273 38.1215 37.647 38.3353 37.5724C39.7486 37.0784 41.0288 36.4376 42.1404 35.6681C42.3479 35.5246 42.475 35.2913 42.4833 35.0392C42.4917 34.7871 42.3801 34.546 42.1826 34.3891L42.1624 34.3731C42.1452 34.3594 42.1279 34.3456 42.1107 34.3317C40.3719 32.9181 39.3791 30.9429 39.2398 28.6196C39.2191 28.2767 39.3333 27.9464 39.5612 27.6893C39.7891 27.4324 40.1034 27.2794 40.4466 27.2589C40.7877 27.238 41.1195 27.3523 41.3765 27.5802C41.6334 27.8082 41.7863 28.1226 41.8069 28.4655C41.9 30.0168 42.5081 31.2855 43.6141 32.2366C43.811 32.4059 44.0256 32.5657 44.252 32.7117C44.6136 32.9449 45.0952 32.8488 45.3396 32.4945C46.1518 31.3173 46.656 30.3069 46.9264 29.3144C47.0799 28.7511 47.6184 28.3659 48.2095 28.3988C48.5988 28.4204 48.9506 28.616 49.1746 28.9355C49.3968 29.2527 49.4603 29.6464 49.349 30.0158Z" fill="white"/>
</g>
<defs>
<clipPath id="clip0_787_1142">
<rect width="40" height="40" fill="white" transform="translate(11 12)"/>
</clipPath>
</defs>
</svg>
