<svg width="62" height="64" viewBox="0 0 62 64" fill="none" xmlns="http://www.w3.org/2000/svg">
<ellipse cx="30.8265" cy="32" rx="30.8265" ry="32" fill="#9B8462"/>
<path d="M32.6328 13.9805H29.3672V20.9883H32.6328V13.9805Z" fill="#F4F4F4"/>
<path d="M32.6328 42.0117H29.3672V49.0195H32.6328V42.0117Z" fill="#F4F4F4"/>
<path d="M41.9161 17.9264L37.0879 22.8817L39.397 25.2516L44.2252 20.2963L41.9161 17.9264Z" fill="#F4F4F4"/>
<path d="M22.6036 37.7476L17.7754 42.7029L20.0845 45.0728L24.9127 40.1175L22.6036 37.7476Z" fill="#F4F4F4"/>
<path d="M48.0703 29.8242H41.2422V33.1758H48.0703V29.8242Z" fill="#F4F4F4"/>
<path d="M20.7578 29.8242H13.9297V33.1758H20.7578V29.8242Z" fill="#F4F4F4"/>
<path d="M39.3973 37.7481L37.0881 40.118L41.9163 45.0733L44.2255 42.7034L39.3973 37.7481Z" fill="#F4F4F4"/>
<path d="M20.0836 17.9267L17.7744 20.2966L22.6026 25.2519L24.9118 22.882L20.0836 17.9267Z" fill="#F4F4F4"/>
<path d="M31 39.2695C29.5027 39.2695 28.0391 38.8139 26.7942 37.9601C25.5492 37.1064 24.5789 35.893 24.0059 34.4733C23.433 33.0536 23.2831 31.4914 23.5752 29.9842C23.8673 28.4771 24.5883 27.0927 25.647 26.0061C26.7057 24.9195 28.0546 24.1795 29.5231 23.8798C30.9916 23.58 32.5137 23.7338 33.897 24.3219C35.2803 24.9099 36.4627 25.9058 37.2945 27.1835C38.1263 28.4612 38.5703 29.9633 38.5703 31.5C38.568 33.5599 37.7696 35.5347 36.3504 36.9912C34.9312 38.4478 33.0071 39.2671 31 39.2695Z" fill="#F4F4F4"/>
</svg>
