<svg width="62" height="64" viewBox="0 0 62 64" fill="none" xmlns="http://www.w3.org/2000/svg">
<ellipse cx="30.8265" cy="32" rx="30.8265" ry="32" fill="#5BCEFF"/>
<path fill-rule="evenodd" clip-rule="evenodd" d="M30.173 17.7893C31.434 19.3213 33.7854 22.3265 35.8697 25.809C38.1215 29.5714 39.9226 33.6674 39.9226 37C39.9226 40.1861 38.9501 42.6576 37.3194 44.3301C35.6888 46.0025 33.279 47 30.1726 47C27.0662 47 24.6564 46.0025 23.0258 44.3301C21.3951 42.6576 20.4226 40.1861 20.4226 37C20.4226 33.6674 22.2237 29.5714 24.4756 25.809C26.56 22.3264 28.9117 19.3212 30.173 17.7893ZM29.2813 15.3195C29.5609 15.1875 29.8651 15.1191 30.173 15.1191C30.4808 15.1191 30.785 15.1875 31.0647 15.3195C31.3443 15.4515 31.5928 15.644 31.793 15.8839L31.7938 15.8847C33.0188 17.3547 35.6327 20.6343 37.9471 24.5011C40.2296 28.315 42.3601 32.924 42.3601 37C42.3601 40.7178 41.2139 43.8713 39.043 46.0978C36.8721 48.3244 33.7975 49.5 30.1726 49.5C26.5477 49.5 23.4731 48.3244 21.3022 46.0978C19.1313 43.8713 17.9851 40.7178 17.9851 37C17.9851 32.924 20.1156 28.315 22.3983 24.5011C24.7127 20.6342 27.3268 17.3547 28.5523 15.8846L28.5529 15.8839C28.7532 15.644 29.0016 15.4515 29.2813 15.3195Z" fill="white"/>
<path fill-rule="evenodd" clip-rule="evenodd" d="M36.8757 36.375C37.5488 36.375 38.0945 36.9346 38.0945 37.625C38.0945 39.4484 37.3883 41.197 36.1312 42.4864C34.8741 43.7757 33.1691 44.5 31.3914 44.5C30.7183 44.5 30.1726 43.9404 30.1726 43.25C30.1726 42.5596 30.7183 42 31.3914 42C32.5227 42 33.6076 41.5391 34.4076 40.7186C35.2076 39.8981 35.657 38.7853 35.657 37.625C35.657 36.9346 36.2026 36.375 36.8757 36.375Z" fill="white"/>
</svg>
