<svg width="62" height="64" viewBox="0 0 62 64" fill="none" xmlns="http://www.w3.org/2000/svg">
<path d="M61.653 32C61.653 49.6731 47.8515 64 30.8265 64C13.8015 64 0 49.6731 0 32C0 14.3269 13.8015 0 30.8265 0C47.8515 0 61.653 14.3269 61.653 32Z" fill="#3F93B7"/>
<g clip-path="url(#clip0_787_1152)">
<path d="M11.0899 20.285C11.2133 19.9774 11.4538 19.7314 11.7585 19.6011C12.0632 19.4707 12.4072 19.4667 12.7149 19.59L17.1074 21.3475C18.0013 21.705 18.9985 21.705 19.8924 21.3475L22.4274 20.3325C23.9175 19.7364 25.5798 19.7364 27.0699 20.3325L29.6074 21.3475C30.5013 21.705 31.4985 21.705 32.3924 21.3475L34.9274 20.3325C36.4175 19.7364 38.0798 19.7364 39.5699 20.3325L42.1074 21.3475C43.0013 21.705 43.9985 21.705 44.8924 21.3475L49.2849 19.59C49.438 19.5249 49.6025 19.491 49.7688 19.4903C49.9352 19.4897 50.1 19.5222 50.2536 19.586C50.4072 19.6498 50.5465 19.7436 50.6634 19.862C50.7803 19.9803 50.8724 20.1208 50.9343 20.2752C50.9962 20.4296 51.0266 20.5948 51.0238 20.7611C51.0211 20.9275 50.9851 21.0915 50.9181 21.2438C50.8511 21.396 50.7544 21.5334 50.6337 21.6478C50.5129 21.7622 50.3705 21.8513 50.2149 21.91L45.8199 23.6675C44.3298 24.2636 42.6675 24.2636 41.1774 23.6675L38.6424 22.6525C37.7485 22.295 36.7513 22.295 35.8574 22.6525L33.3199 23.6675C31.8298 24.2636 30.1675 24.2636 28.6774 23.6675L26.1424 22.6525C25.2485 22.295 24.2513 22.295 23.3574 22.6525L20.8199 23.6675C19.3298 24.2636 17.6675 24.2636 16.1774 23.6675L11.7849 21.91C11.4773 21.7866 11.2313 21.5461 11.1009 21.2414C10.9706 20.9367 10.9666 20.5927 11.0899 20.285ZM11.0899 27.785C11.2133 27.4774 11.4538 27.2314 11.7585 27.1011C12.0632 26.9707 12.4072 26.9667 12.7149 27.09L17.1074 28.8475C18.0013 29.205 18.9985 29.205 19.8924 28.8475L22.4274 27.8325C23.9175 27.2364 25.5798 27.2364 27.0699 27.8325L29.6074 28.8475C30.5013 29.205 31.4985 29.205 32.3924 28.8475L34.9274 27.8325C36.4175 27.2364 38.0798 27.2364 39.5699 27.8325L42.1074 28.8475C43.0013 29.205 43.9985 29.205 44.8924 28.8475L49.2849 27.09C49.438 27.0249 49.6025 26.991 49.7688 26.9903C49.9352 26.9897 50.1 27.0222 50.2536 27.086C50.4072 27.1498 50.5465 27.2436 50.6634 27.362C50.7803 27.4803 50.8724 27.6208 50.9343 27.7752C50.9962 27.9296 51.0266 28.0948 51.0238 28.2611C51.0211 28.4275 50.9851 28.5915 50.9181 28.7438C50.8511 28.896 50.7544 29.0334 50.6337 29.1478C50.5129 29.2622 50.3705 29.3513 50.2149 29.41L45.8199 31.1675C44.3298 31.7636 42.6675 31.7636 41.1774 31.1675L38.6424 30.1525C37.7485 29.795 36.7513 29.795 35.8574 30.1525L33.3199 31.1675C31.8298 31.7636 30.1675 31.7636 28.6774 31.1675L26.1424 30.1525C25.2485 29.795 24.2513 29.795 23.3574 30.1525L20.8199 31.1675C19.3298 31.7636 17.6675 31.7636 16.1774 31.1675L11.7849 29.41C11.4773 29.2866 11.2313 29.0461 11.1009 28.7414C10.9706 28.4367 10.9666 28.0927 11.0899 27.785ZM11.0899 35.285C11.2133 34.9774 11.4538 34.7314 11.7585 34.6011C12.0632 34.4707 12.4072 34.4668 12.7149 34.59L17.1074 36.3475C18.0013 36.705 18.9985 36.705 19.8924 36.3475L22.4274 35.3325C23.9175 34.7364 25.5798 34.7364 27.0699 35.3325L29.6074 36.3475C30.5013 36.705 31.4985 36.705 32.3924 36.3475L34.9274 35.3325C36.4175 34.7364 38.0798 34.7364 39.5699 35.3325L42.1074 36.3475C43.0013 36.705 43.9985 36.705 44.8924 36.3475L49.2849 34.59C49.438 34.5249 49.6025 34.491 49.7688 34.4903C49.9352 34.4897 50.1 34.5222 50.2536 34.586C50.4072 34.6498 50.5465 34.7436 50.6634 34.862C50.7803 34.9803 50.8724 35.1208 50.9343 35.2752C50.9962 35.4296 51.0266 35.5948 51.0238 35.7611C51.0211 35.9275 50.9851 36.0915 50.9181 36.2438C50.8511 36.396 50.7544 36.5334 50.6337 36.6478C50.5129 36.7622 50.3705 36.8513 50.2149 36.91L45.8199 38.6675C44.3298 39.2636 42.6675 39.2636 41.1774 38.6675L38.6424 37.6525C37.7485 37.295 36.7513 37.295 35.8574 37.6525L33.3199 38.6675C31.8298 39.2636 30.1675 39.2636 28.6774 38.6675L26.1424 37.6525C25.2485 37.295 24.2513 37.295 23.3574 37.6525L20.8199 38.6675C19.3298 39.2636 17.6675 39.2636 16.1774 38.6675L11.7849 36.91C11.4773 36.7866 11.2313 36.5461 11.1009 36.2414C10.9706 35.9367 10.9666 35.5927 11.0899 35.285ZM11.0899 42.785C11.2133 42.4774 11.4538 42.2314 11.7585 42.1011C12.0632 41.9707 12.4072 41.9667 12.7149 42.09L17.1074 43.8475C18.0013 44.205 18.9985 44.205 19.8924 43.8475L22.4274 42.8325C23.9175 42.2364 25.5798 42.2364 27.0699 42.8325L29.6074 43.8475C30.5013 44.205 31.4985 44.205 32.3924 43.8475L34.9274 42.8325C36.4175 42.2364 38.0798 42.2364 39.5699 42.8325L42.1074 43.8475C43.0013 44.205 43.9985 44.205 44.8924 43.8475L49.2849 42.09C49.438 42.0249 49.6025 41.991 49.7688 41.9903C49.9352 41.9897 50.1 42.0222 50.2536 42.086C50.4072 42.1498 50.5465 42.2436 50.6634 42.362C50.7803 42.4803 50.8724 42.6208 50.9343 42.7752C50.9962 42.9296 51.0266 43.0948 51.0238 43.2611C51.0211 43.4275 50.9851 43.5915 50.9181 43.7438C50.8511 43.896 50.7544 44.0334 50.6337 44.1478C50.5129 44.2622 50.3705 44.3513 50.2149 44.41L45.8199 46.1675C44.3298 46.7636 42.6675 46.7636 41.1774 46.1675L38.6424 45.1525C37.7485 44.795 36.7513 44.795 35.8574 45.1525L33.3199 46.1675C31.8298 46.7636 30.1675 46.7636 28.6774 46.1675L26.1424 45.1525C25.2485 44.795 24.2513 44.795 23.3574 45.1525L20.8199 46.1675C19.3298 46.7636 17.6675 46.7636 16.1774 46.1675L11.7849 44.41C11.4773 44.2866 11.2313 44.0461 11.1009 43.7414C10.9706 43.4367 10.9666 43.0927 11.0899 42.785Z" fill="white"/>
</g>
<defs>
<clipPath id="clip0_787_1152">
<rect width="40" height="40" fill="white" transform="translate(11 12)"/>
</clipPath>
</defs>
</svg>
