<svg width="62" height="64" viewBox="0 0 62 64" fill="none" xmlns="http://www.w3.org/2000/svg">
<path d="M61.653 32C61.653 49.6731 47.8515 64 30.8265 64C13.8015 64 0 49.6731 0 32C0 14.3269 13.8015 0 30.8265 0C47.8515 0 61.653 14.3269 61.653 32Z" fill="#3F93B7"/>
<path d="M16 28.6667C20.1379 28.6667 23.2414 23.6667 23.2414 23.6667C23.2414 23.6667 26.3448 28.6667 30.4828 28.6667C34.6207 28.6667 38.7587 23.6667 38.7587 23.6667C38.7587 23.6667 42.8965 28.6667 46 28.6667" stroke="white" stroke-width="2.5" stroke-linecap="round" stroke-linejoin="round"/>
<path d="M16 40.3333C20.1379 40.3333 23.2414 35.3333 23.2414 35.3333C23.2414 35.3333 26.3448 40.3333 30.4828 40.3333C34.6207 40.3333 38.7587 35.3333 38.7587 35.3333C38.7587 35.3333 42.8965 40.3333 46 40.3333" stroke="white" stroke-width="2.5" stroke-linecap="round" stroke-linejoin="round"/>
</svg>
