<svg width="50" height="51" viewBox="0 0 50 51" fill="none" xmlns="http://www.w3.org/2000/svg">
<circle cx="25" cy="25.3243" r="25" fill="#0E902B"/>
<path d="M20.7816 38.2637H17.8164V36.3594H20.7816V24.5204L17.3074 22.5124L18.3254 20.8804L21.7986 22.8875C22.0906 23.0575 22.3323 23.297 22.5004 23.5829C22.6685 23.8689 22.7573 24.1918 22.7584 24.5204V36.3594C22.7579 36.8643 22.5494 37.3484 22.1788 37.7054C21.8082 38.0624 21.3057 38.2632 20.7816 38.2637Z" fill="white"/>
<path d="M30.6656 38.2637H27.7004C27.1763 38.2632 26.6738 38.0624 26.3032 37.7054C25.9326 37.3484 25.7242 36.8643 25.7236 36.3594V25.8858H31.654C32.2063 25.8859 32.7524 25.7745 33.2573 25.5589C33.7621 25.3432 34.2145 25.0281 34.5852 24.6337C34.9559 24.2394 35.2367 23.7746 35.4096 23.2694C35.5824 22.7641 35.6435 22.2295 35.5888 21.7002C35.4565 20.737 34.9604 19.8545 34.1954 19.2215C33.4303 18.5885 32.4499 18.2492 31.4415 18.2686H29.8769L29.7019 17.5269C29.1356 15.1227 26.7427 13.5079 23.7468 13.5079C22.6156 13.5114 21.5089 13.8256 20.5564 14.4134C19.6039 15.0013 18.8451 15.8386 18.369 16.8271L18.0636 17.4621L17.2106 17.3536C17.0841 17.3326 16.9563 17.3202 16.8281 17.3165C15.7795 17.3165 14.7739 17.7177 14.0325 18.432C13.291 19.1462 12.8745 20.115 12.8745 21.1251C12.8745 22.1352 13.291 23.1039 14.0325 23.8181C14.7739 24.5324 15.7795 24.9337 16.8281 24.9337V26.838C15.2552 26.838 13.7468 26.2361 12.6347 25.1647C11.5225 24.0933 10.8977 22.6402 10.8977 21.1251C10.8977 19.6099 11.5225 18.1568 12.6347 17.0854C13.7468 16.0141 15.2552 15.4122 16.8281 15.4122L16.9062 15.4131C17.6015 14.2577 18.599 13.298 19.7992 12.6296C20.9994 11.9612 22.3605 11.6075 23.7468 11.6036C27.3832 11.6036 30.3612 13.4869 31.4089 16.3643H31.4415C32.9406 16.3482 34.3933 16.8651 35.5215 17.8162C36.6498 18.7673 37.3744 20.0857 37.5567 21.5193C37.6374 22.3127 37.5448 23.1137 37.2849 23.8707C37.025 24.6276 36.6035 25.3238 36.0475 25.9144C35.4916 26.5051 34.8135 26.9771 34.0568 27.3001C33.3001 27.6231 32.4817 27.79 31.654 27.7901H27.7004V36.3594H30.6656V38.2637Z" fill="white"/>
</svg>
