<svg width="62" height="64" viewBox="0 0 62 64" fill="none" xmlns="http://www.w3.org/2000/svg">
<ellipse cx="30.8265" cy="32" rx="30.8265" ry="32" fill="#0E902B"/>
<path d="M25.625 48.5625H21.9687V46.125H25.625V30.9711L21.3411 28.4007L22.5964 26.3118L26.8791 28.8809C27.2391 29.0985 27.5371 29.405 27.7444 29.7711C27.9516 30.1371 28.0612 30.5504 28.0625 30.9711V46.125C28.0618 46.7713 27.8048 47.3909 27.3478 47.8479C26.8909 48.3048 26.2712 48.5619 25.625 48.5625Z" fill="white"/>
<path d="M37.8125 48.5625H34.1562C33.51 48.5619 32.8904 48.3048 32.4334 47.8479C31.9764 47.3909 31.7194 46.7713 31.7188 46.125V32.7188H39.0312C39.7122 32.7189 40.3856 32.5763 41.0082 32.3003C41.6307 32.0242 42.1884 31.6209 42.6455 31.1161C43.1026 30.6114 43.4489 30.0164 43.6621 29.3697C43.8752 28.723 43.9505 28.0387 43.8831 27.3611C43.72 26.1283 43.1083 24.9987 42.1649 24.1884C41.2215 23.3781 40.0126 22.9439 38.7692 22.9688H36.8399L36.6242 22.0193C35.9259 18.942 32.9753 16.875 29.2812 16.875C27.8864 16.8796 26.5218 17.2817 25.3473 18.0341C24.1728 18.7866 23.2372 19.8583 22.65 21.1236L22.2734 21.9365L21.2217 21.7975C21.0657 21.7707 20.9081 21.7548 20.75 21.75C19.4571 21.75 18.2171 22.2636 17.3029 23.1779C16.3886 24.0921 15.875 25.3321 15.875 26.625C15.875 27.9179 16.3886 29.1579 17.3029 30.0721C18.2171 30.9864 19.4571 31.5 20.75 31.5V33.9375C18.8106 33.9375 16.9506 33.1671 15.5793 31.7957C14.2079 30.4244 13.4375 28.5644 13.4375 26.625C13.4375 24.6856 14.2079 22.8256 15.5793 21.4543C16.9506 20.0829 18.8106 19.3125 20.75 19.3125L20.8463 19.3137C21.7037 17.8348 22.9336 16.6064 24.4135 15.7509C25.8935 14.8953 27.5718 14.4425 29.2812 14.4375C33.765 14.4375 37.4371 16.8482 38.729 20.5312H38.7692C40.6177 20.5106 42.4089 21.1723 43.8001 22.3897C45.1913 23.6071 46.0848 25.2947 46.3096 27.1296C46.4091 28.1452 46.2949 29.1705 45.9744 30.1394C45.6539 31.1083 45.1342 31.9994 44.4487 32.7554C43.7632 33.5114 42.927 34.1156 41.994 34.529C41.061 34.9425 40.0518 35.1562 39.0312 35.1562H34.1562V46.125H37.8125V48.5625Z" fill="white"/>
</svg>
