<svg width="62" height="64" viewBox="0 0 62 64" fill="none" xmlns="http://www.w3.org/2000/svg">
<path d="M61.653 32C61.653 49.6731 47.8515 64 30.8265 64C13.8015 64 0 49.6731 0 32C0 14.3269 13.8015 0 30.8265 0C47.8515 0 61.653 14.3269 61.653 32Z" fill="#CD9F72"/>
<path d="M31.0001 18.6667C21.0001 18.6667 21.0001 25.3333 21.0001 28.6667C18.2223 28.6667 12.6667 30.3333 12.6667 37C12.6667 43.6667 18.2223 45.3333 21.0001 45.3333H41.0001C43.7779 45.3333 49.3334 43.6667 49.3334 37C49.3334 30.3333 43.7779 28.6667 41.0001 28.6667C41.0001 25.3333 41.0001 18.6667 31.0001 18.6667Z" stroke="white" stroke-width="2.5" stroke-linejoin="round"/>
</svg>
