<svg width="62" height="64" viewBox="0 0 62 64" fill="none" xmlns="http://www.w3.org/2000/svg">
<path d="M61.653 32C61.653 49.6731 47.8515 64 30.8265 64C13.8015 64 0 49.6731 0 32C0 14.3269 13.8015 0 30.8265 0C47.8515 0 61.653 14.3269 61.653 32Z" fill="#768078"/>
<path d="M30.4999 11.9167L20.7083 21.0089C20.7083 21.0089 26.6663 21.7083 30.4999 21.7083C34.3336 21.7083 40.2916 21.0089 40.2916 21.0089L30.4999 11.9167Z" stroke="white" stroke-width="2.5" stroke-linecap="round" stroke-linejoin="round"/>
<path d="M23.6459 21.7083L16.7917 29.423C16.7917 29.423 21.9324 31.5 30.5001 31.5C39.0678 31.5 44.2084 29.423 44.2084 29.423L37.3542 21.7083" stroke="white" stroke-width="2.5" stroke-linecap="round" stroke-linejoin="round"/>
<path d="M19.7292 30.5208L12.875 38.3994C12.875 38.3994 18.1625 43.25 30.5 43.25C42.8375 43.25 48.125 38.3994 48.125 38.3994L41.2708 30.5208" stroke="white" stroke-width="2.5" stroke-linecap="round" stroke-linejoin="round"/>
<path d="M30.5 51.0833V45.2083" stroke="white" stroke-width="2.5" stroke-linecap="round" stroke-linejoin="round"/>
</svg>
