<svg width="62" height="64" viewBox="0 0 62 64" fill="none" xmlns="http://www.w3.org/2000/svg">
<path d="M61.653 32C61.653 49.6731 47.8515 64 30.8265 64C13.8015 64 0 49.6731 0 32C0 14.3269 13.8015 0 30.8265 0C47.8515 0 61.653 14.3269 61.653 32Z" fill="#4EF0BF"/>
<path d="M48.9297 39.0562L45.8685 37.4605C46.4225 36.9456 47.0578 36.5075 47.7539 36.1605C48.2089 35.929 48.5442 35.5446 48.6867 35.091C48.8292 34.6375 48.7674 34.1515 48.5148 33.7389C48.2621 33.3263 47.839 33.0204 47.3377 32.8879C46.8363 32.7555 46.2973 32.8071 45.8379 33.0316C44.5088 33.6954 43.3311 34.5804 42.367 35.6397L34.4339 31.5L42.3652 27.3676C43.3291 28.4272 44.5068 29.3122 45.8361 29.9757C46.0639 30.0917 46.3149 30.1657 46.5747 30.1936C46.8344 30.2215 47.0976 30.2028 47.3493 30.1384C47.6009 30.074 47.8359 29.9653 48.0407 29.8185C48.2455 29.6717 48.4161 29.4898 48.5426 29.2832C48.6691 29.0766 48.749 28.8495 48.7777 28.6149C48.8064 28.3803 48.7834 28.1429 48.7099 27.9164C48.6364 27.6898 48.5139 27.4787 48.3495 27.2951C48.1851 27.1116 47.9821 26.9592 47.7521 26.8468C47.0561 26.4996 46.4208 26.0615 45.8667 25.5468L48.928 23.9511C49.1621 23.8381 49.3687 23.6838 49.5355 23.4973C49.7022 23.3109 49.8257 23.096 49.8987 22.8656C49.9716 22.6352 49.9924 22.394 49.96 22.1562C49.9275 21.9183 49.8424 21.6888 49.7097 21.4813C49.577 21.2738 49.3994 21.0924 49.1874 20.9481C48.9755 20.8037 48.7336 20.6993 48.4761 20.641C48.2185 20.5826 47.9506 20.5717 47.6883 20.6086C47.4259 20.6456 47.1745 20.7298 46.9489 20.8562L43.8877 22.4512C43.6697 21.7605 43.5659 21.0445 43.5798 20.3265C43.5855 20.0913 43.5398 19.8575 43.4451 19.6383C43.3505 19.4191 43.2089 19.219 43.0284 19.0493C42.8479 18.8796 42.6321 18.7438 42.3933 18.6495C42.1545 18.5552 41.8974 18.5044 41.6368 18.5H41.5999C41.0809 18.4999 40.5826 18.6837 40.2121 19.0117C39.8417 19.3398 39.6287 19.7859 39.6191 20.2542C39.5912 21.624 39.8508 22.9861 40.3844 24.2687L32.4531 28.4036V20.1396C33.9516 19.9161 35.3897 19.4383 36.6911 18.7316C37.1411 18.4869 37.4649 18.0909 37.5914 17.6307C37.7179 17.1706 37.6366 16.6839 37.3654 16.2778C37.0943 15.8717 36.6555 15.5795 36.1456 15.4653C35.6356 15.3512 35.0963 15.4246 34.6463 15.6692C33.9642 16.0392 33.2251 16.3161 32.4531 16.4907V13.7875C32.4531 13.3134 32.2444 12.8588 31.8729 12.5235C31.5014 12.1883 30.9976 12 30.4722 12C29.9469 12 29.4431 12.1883 29.0716 12.5235C28.7001 12.8588 28.4914 13.3134 28.4914 13.7875V16.4907C27.7194 16.3161 26.9803 16.0392 26.2982 15.6692C25.8481 15.4246 25.3089 15.3512 24.7989 15.4653C24.289 15.5795 23.8502 15.8717 23.579 16.2778C23.3079 16.6839 23.2266 17.1706 23.3531 17.6307C23.4796 18.0909 23.8034 18.4869 24.2534 18.7316C25.5548 19.4383 26.9929 19.9161 28.4914 20.1396V28.4036L20.5601 24.2687C21.0945 22.9857 21.3548 21.623 21.3272 20.2526C21.3176 19.7843 21.1046 19.3381 20.7342 19.0101C20.3637 18.682 19.8654 18.4983 19.3464 18.4984H19.3077C19.0476 18.5027 18.7909 18.5532 18.5524 18.6471C18.314 18.741 18.0983 18.8763 17.9178 19.0454C17.7373 19.2145 17.5954 19.414 17.5004 19.6326C17.4053 19.8511 17.3589 20.0844 17.3638 20.3192C17.3783 21.0383 17.2749 21.7554 17.0568 22.4471L13.9956 20.8562C13.7701 20.7349 13.5202 20.6552 13.2604 20.6218C13.0005 20.5883 12.7359 20.6018 12.4818 20.6615C12.2278 20.7212 11.9895 20.8258 11.7806 20.9693C11.5718 21.1129 11.3967 21.2924 11.2654 21.4975C11.1342 21.7027 11.0494 21.9293 11.0161 22.1642C10.9827 22.3992 11.0014 22.6378 11.0712 22.8662C11.1409 23.0945 11.2602 23.3081 11.4222 23.4945C11.5842 23.6809 11.7856 23.8363 12.0147 23.9519L15.076 25.5476C14.5219 26.0623 13.8865 26.5004 13.1906 26.8476C12.9606 26.96 12.7576 27.1124 12.5932 27.296C12.4288 27.4795 12.3063 27.6907 12.2328 27.9172C12.1593 28.1437 12.1362 28.3811 12.165 28.6157C12.1937 28.8503 12.2736 29.0774 12.4001 29.284C12.5266 29.4906 12.6972 29.6725 12.902 29.8193C13.1068 29.9661 13.3418 30.0748 13.5934 30.1392C13.8451 30.2036 14.1083 30.2224 14.368 30.1944C14.6278 30.1665 14.8788 30.0925 15.1066 29.9766C16.4357 29.3127 17.6134 28.4278 18.5775 27.3684L26.5106 31.5L18.5793 35.6324C17.6152 34.5731 16.4375 33.6881 15.1084 33.0243C14.8806 32.9083 14.6296 32.8343 14.3698 32.8064C14.1101 32.7785 13.8469 32.7972 13.5952 32.8616C13.3436 32.926 13.1086 33.0347 12.9038 33.1815C12.699 33.3283 12.5284 33.5102 12.4019 33.7168C12.2754 33.9234 12.1955 34.1505 12.1668 34.3851C12.138 34.6197 12.1611 34.8571 12.2346 35.0836C12.3081 35.3101 12.4306 35.5213 12.595 35.7049C12.7594 35.8884 12.9624 36.0408 13.1924 36.1532C13.8884 36.5004 14.5237 36.9385 15.0778 37.4532L12.0147 39.0562C11.7856 39.1718 11.5842 39.3272 11.4222 39.5136C11.2602 39.7 11.1409 39.9136 11.0712 40.142C11.0014 40.3703 10.9827 40.6089 11.0161 40.8439C11.0494 41.0788 11.1342 41.3055 11.2654 41.5106C11.3967 41.7157 11.5718 41.8953 11.7806 42.0388C11.9895 42.1823 12.2278 42.2869 12.4818 42.3466C12.7359 42.4063 13.0005 42.4198 13.2604 42.3864C13.5202 42.3529 13.7701 42.2732 13.9956 42.1519L17.0568 40.5569C17.2748 41.2476 17.3786 41.9636 17.3647 42.6816C17.3556 43.1552 17.555 43.6126 17.9193 43.9536C18.2836 44.2945 18.783 44.491 19.3077 44.5H19.3446C19.8636 44.5001 20.3619 44.3163 20.7324 43.9883C21.1028 43.6602 21.3158 43.2141 21.3254 42.7458C21.3533 41.376 21.0937 40.0139 20.5601 38.7312L28.4914 34.5964V42.8604C26.9929 43.0839 25.5548 43.5617 24.2534 44.2684C23.8034 44.5131 23.4796 44.9091 23.3531 45.3693C23.2266 45.8294 23.3079 46.3161 23.579 46.7222C23.8502 47.1283 24.289 47.4205 24.7989 47.5347C25.3089 47.6488 25.8481 47.5754 26.2982 47.3307C26.9803 46.9608 27.7194 46.6839 28.4914 46.5093V49.2125C28.4914 49.6866 28.7001 50.1412 29.0716 50.4765C29.4431 50.8117 29.9469 51 30.4722 51C30.9976 51 31.5014 50.8117 31.8729 50.4765C32.2444 50.1412 32.4531 49.6866 32.4531 49.2125V46.5093C33.2251 46.6839 33.9642 46.9608 34.6463 47.3307C35.0963 47.5754 35.6356 47.6488 36.1456 47.5347C36.6555 47.4205 37.0943 47.1283 37.3654 46.7222C37.6366 46.3161 37.7179 45.8294 37.5914 45.3693C37.4649 44.9091 37.1411 44.5131 36.6911 44.2684C35.3897 43.5617 33.9516 43.0839 32.4531 42.8604V34.5964L40.3844 38.7312C39.85 40.0143 39.5897 41.377 39.6173 42.7474C39.6269 43.2157 39.8399 43.6619 40.2103 43.9899C40.5808 44.318 41.0791 44.5017 41.5981 44.5016H41.6368C41.8969 44.4973 42.1536 44.4467 42.3921 44.3529C42.6305 44.259 42.8462 44.1237 43.0267 43.9546C43.2072 43.7855 43.3491 43.586 43.4441 43.3674C43.5392 43.1489 43.5856 42.9156 43.5807 42.6808C43.5662 41.9617 43.6696 41.2446 43.8877 40.5529L46.9489 42.1478C47.1744 42.2784 47.4268 42.3664 47.691 42.4065C47.9552 42.4465 48.2256 42.4378 48.486 42.3809C48.7463 42.3239 48.9911 42.2199 49.2057 42.0751C49.4202 41.9303 49.5999 41.7477 49.734 41.5384C49.8681 41.3291 49.9537 41.0975 49.9858 40.8575C50.0178 40.6175 49.9956 40.3741 49.9204 40.142C49.8452 39.91 49.7187 39.6942 49.5484 39.5075C49.3781 39.3209 49.1677 39.1674 48.9297 39.0562Z" fill="white"/>
</svg>
