<svg width="50" height="51" viewBox="0 0 50 51" fill="none" xmlns="http://www.w3.org/2000/svg">
<path d="M25 4.81647C20.5982 4.81647 16.9922 8.42252 16.9922 12.8243C16.9922 15.345 18.1761 17.6032 20.0135 19.0743H12.5L3.125 47.1993H46.875L37.5 19.0743H29.9865C31.8239 17.6032 33.0078 15.345 33.0078 12.8243C33.0078 8.42252 29.4018 4.81647 25 4.81647ZM25 8.33209C27.5018 8.33209 29.4922 10.3225 29.4922 12.8243C29.4922 15.326 27.5018 17.3165 25 17.3165C22.4982 17.3165 20.5078 15.326 20.5078 12.8243C20.5078 10.3225 22.4982 8.33209 25 8.33209ZM16.9712 28.1514H19.2661V31.3998L22.574 28.1513H25.2384L20.9529 32.3652L25.6795 37.0502H22.8066L19.2661 33.5455V37.0502H16.9712V28.1514ZM28.6835 30.2256C29.1483 30.2256 29.5576 30.3169 29.9113 30.4997C30.2649 30.6824 30.5888 30.9705 30.883 31.3639V30.3747H33.0287V36.3768C33.0287 37.4497 32.6889 38.2682 32.0094 38.8325C31.3339 39.4007 30.3523 39.6848 29.0648 39.6847C28.6478 39.6847 28.2445 39.653 27.8549 39.5894C27.4563 39.5236 27.0636 39.426 26.6807 39.2974V37.6343C27.0544 37.849 27.4199 38.008 27.7773 38.1113C28.1352 38.2186 28.4949 38.2722 28.8564 38.2722C29.5558 38.2722 30.0684 38.1192 30.3941 37.8132C30.7201 37.5074 30.883 37.0286 30.883 36.3769V35.9179C30.589 36.3073 30.2651 36.5933 29.9113 36.7761C29.5577 36.9588 29.1484 37.0502 28.6835 37.0504C27.8688 37.0504 27.1953 36.7305 26.663 36.0908C26.1304 35.447 25.8642 34.6285 25.8642 33.6351C25.8642 32.6377 26.1304 31.8211 26.663 31.1853C27.1953 30.5456 27.8688 30.2257 28.6835 30.2256ZM29.4763 31.7633C29.0351 31.7634 28.6914 31.9263 28.445 32.2521C28.1987 32.5781 28.0755 33.0391 28.0755 33.6351C28.0755 34.247 28.1947 34.7119 28.4331 35.0296C28.6716 35.3436 29.0193 35.5006 29.4763 35.5006C29.9213 35.5006 30.267 35.3376 30.5134 35.0118C30.7598 34.6859 30.883 34.227 30.8829 33.635C30.8829 33.0389 30.7597 32.578 30.5133 32.2522C30.2669 31.9263 29.9212 31.7633 29.4762 31.7633H29.4763Z" fill="black"/>
</svg>
