<svg width="50" height="51" viewBox="0 0 50 51" fill="none" xmlns="http://www.w3.org/2000/svg">
<path d="M35.4617 30.8215V7.94861H13.1506V42.5042H24.3048" fill="white"/>
<path d="M29.977 44.2798C34.2453 44.2798 37.7055 40.8197 37.7055 36.5513C37.7055 32.283 34.2453 28.8229 29.977 28.8229C25.7087 28.8229 22.2485 32.283 22.2485 36.5513C22.2485 40.8197 25.7087 44.2798 29.977 44.2798Z" fill="#D0CFCE"/>
<path d="M35.4617 30.8215V7.94861H13.1506V42.5042H24.3048M16.4354 11.4493H22.2222M16.4354 17.3382H31.7131M16.4354 19.9569H31.7131M16.4354 22.575H31.7131M16.4354 25.1937H31.7131M16.4354 27.8125H31.7131M25.2638 30.4285H16.4374M23.0902 33.0465H16.4374M22.3055 35.6646H16.4374" stroke="black" stroke-width="2" stroke-miterlimit="10" stroke-linecap="round" stroke-linejoin="round"/>
<path d="M29.977 44.2799C34.2453 44.2799 37.7055 40.8197 37.7055 36.5514C37.7055 32.2831 34.2453 28.8229 29.977 28.8229C25.7087 28.8229 22.2485 32.2831 22.2485 36.5514C22.2485 40.8197 25.7087 44.2799 29.977 44.2799Z" stroke="black" stroke-width="2" stroke-miterlimit="10" stroke-linecap="round" stroke-linejoin="round"/>
<path d="M35.4617 42.5042L39.2582 46.3007M23.2214 33.9722H32.552M22.3416 37.7125H32.552" stroke="black" stroke-width="2" stroke-miterlimit="10" stroke-linecap="round" stroke-linejoin="round"/>
</svg>
