<svg width="50" height="51" viewBox="0 0 50 51" fill="none" xmlns="http://www.w3.org/2000/svg">
<path d="M15.1787 17.2885C16.9547 17.2885 18.6579 16.583 19.9138 15.3272C21.1696 14.0714 21.8751 12.3681 21.8751 10.5921C21.8751 8.81612 21.1696 7.11285 19.9138 5.85703C18.6579 4.60121 16.9547 3.89569 15.1787 3.89569C13.4027 3.89569 11.6994 4.60121 10.4436 5.85703C9.18776 7.11285 8.48225 8.81612 8.48225 10.5921C8.48225 12.3681 9.18776 14.0714 10.4436 15.3272C11.6994 16.583 13.4027 17.2885 15.1787 17.2885ZM3.57153 23.5064C3.57153 21.551 5.15546 19.9671 7.11082 19.9671H17.1108C16.3282 21.9416 16.3148 24.1378 17.0733 26.1217C17.8318 28.1056 19.307 29.7327 21.2072 30.6814H16.934C15.8786 30.6808 14.8468 30.994 13.9698 31.5813C13.0928 32.1686 12.4103 33.0034 12.009 33.9796C8.42868 33.3171 6.28225 31.5296 5.05546 29.5332C3.57153 27.1278 3.57153 24.6421 3.57153 24.2135V23.5064ZM28.7912 30.6814H33.068C35.2912 30.6814 37.1965 32.0439 37.993 33.9796C41.5733 33.3171 43.7197 31.5296 44.9465 29.5332C46.4287 27.126 46.4287 24.6403 46.4287 24.2118V23.5064C46.4291 23.0415 46.3379 22.581 46.1602 22.1514C45.9825 21.7218 45.7218 21.3315 45.3931 21.0027C45.0643 20.674 44.674 20.4133 44.2444 20.2356C43.8148 20.0579 43.3543 19.9667 42.8894 19.9671H32.8894C33.672 21.9416 33.6854 24.1378 32.9269 26.1217C32.1684 28.1056 30.6932 29.7327 28.793 30.6814M41.518 10.5921C41.518 12.3681 40.8125 14.0714 39.5566 15.3272C38.3008 16.583 36.5975 17.2885 34.8215 17.2885C33.0455 17.2885 31.3423 16.583 30.0864 15.3272C28.8306 14.0714 28.1251 12.3681 28.1251 10.5921C28.1251 8.81612 28.8306 7.11285 30.0864 5.85703C31.3423 4.60121 33.0455 3.89569 34.8215 3.89569C36.5975 3.89569 38.3008 4.60121 39.5566 5.85703C40.8125 7.11285 41.518 8.81612 41.518 10.5921ZM13.393 36.0064C13.393 34.051 14.9769 32.4671 16.9322 32.4671H33.068C35.0233 32.4671 36.6072 34.051 36.6072 36.0064V36.7118C36.6072 37.1403 36.6072 39.626 35.1251 42.0332C33.5715 44.5618 30.5465 46.7528 25.0001 46.7528C19.4537 46.7528 16.4287 44.56 14.8751 42.035C13.393 39.626 13.393 37.1421 13.393 36.7118V36.0064ZM25.0001 29.7885C26.7761 29.7885 28.4794 29.083 29.7352 27.8272C30.991 26.5714 31.6965 24.8681 31.6965 23.0921C31.6965 21.3161 30.991 19.6129 29.7352 18.357C28.4794 17.1012 26.7761 16.3957 25.0001 16.3957C23.2241 16.3957 21.5208 17.1012 20.265 18.357C19.0092 19.6129 18.3037 21.3161 18.3037 23.0921C18.3037 24.8681 19.0092 26.5714 20.265 27.8272C21.5208 29.083 23.2241 29.7885 25.0001 29.7885Z" fill="black"/>
</svg>
