<svg width="50" height="51" viewBox="0 0 50 51" fill="none" xmlns="http://www.w3.org/2000/svg">
<path d="M12.4999 8.65763H8.33325V4.49097H41.6666V8.65763H37.4999V12.8243C37.4999 16.1889 35.7999 18.8972 33.6583 21.1097C32.1937 22.6222 30.4124 24.016 28.6062 25.3243C30.4124 26.6326 32.1937 28.0264 33.6583 29.5389C35.7999 31.7514 37.4999 34.4597 37.4999 37.8243V41.991H41.6666V46.1576H8.33325V41.991H12.4999V37.8243C12.4999 34.4597 14.1999 31.7514 16.3416 29.5389C17.8062 28.0264 19.5874 26.6326 21.3937 25.3243C19.5874 24.016 17.8062 22.6222 16.3416 21.1097C14.1999 18.8972 12.4999 16.1889 12.4999 12.8243V8.65763ZM16.6666 8.65763V12.8243C16.6666 14.2514 17.2083 15.6056 18.2728 16.991H31.727C32.7895 15.6056 33.3333 14.2514 33.3333 12.8243V8.65763H16.6666ZM24.9999 27.8701C22.8228 29.4076 20.8499 30.8722 19.3353 32.4368C18.9583 32.8233 18.6036 33.2309 18.2728 33.6576H31.727C31.3962 33.2309 31.0415 32.8233 30.6645 32.4368C29.1499 30.8722 27.177 29.4076 24.9999 27.8701Z" fill="black"/>
</svg>
