<svg width="50" height="51" viewBox="0 0 50 51" fill="none" xmlns="http://www.w3.org/2000/svg">
<path d="M14.5834 4.49097C18.2917 4.49097 20.1459 8.99097 17.5417 11.616C14.9167 14.2201 10.4167 12.366 10.4167 8.65763C10.4167 7.55256 10.8557 6.49276 11.6371 5.71136C12.4185 4.92995 13.4783 4.49097 14.5834 4.49097ZM11.4584 14.9076H17.7084C18.8135 14.9076 19.8733 15.3466 20.6547 16.128C21.4361 16.9094 21.8751 17.9692 21.8751 19.0743V30.5326H18.7501V46.1576H10.4167V30.5326H7.29175V19.0743C7.29175 17.9692 7.73073 16.9094 8.51214 16.128C9.29354 15.3466 10.3533 14.9076 11.4584 14.9076ZM39.5834 16.991H43.7501L37.5001 8.65763L31.2501 16.991H35.4167V33.6576H31.2501L37.5001 41.991L43.7501 33.6576H39.5834M45.8334 4.49097H29.1667V8.65763H45.8334M45.8334 41.991H29.1667V46.1576H45.8334" fill="black"/>
</svg>
