<svg width="45" height="46" viewBox="0 0 45 46" fill="none" xmlns="http://www.w3.org/2000/svg">
<rect y="0.573242" width="45" height="45" rx="22.5" fill="white"/>
<path d="M30.9615 15.8812H28.0296L26.588 13.7193C26.5107 13.6035 26.4061 13.5086 26.2835 13.4429C26.1608 13.3773 26.0238 13.3429 25.8846 13.3428H19.1154C18.9762 13.3429 18.8392 13.3773 18.7165 13.4429C18.5939 13.5086 18.4893 13.6035 18.412 13.7193L16.9693 15.8812H14.0385C13.3652 15.8812 12.7196 16.1487 12.2435 16.6247C11.7674 17.1008 11.5 17.7465 11.5 18.4197V30.2659C11.5 30.9391 11.7674 31.5848 12.2435 32.0608C12.7196 32.5369 13.3652 32.8043 14.0385 32.8043H30.9615C31.6348 32.8043 32.2804 32.5369 32.7565 32.0608C33.2326 31.5848 33.5 30.9391 33.5 30.2659V18.4197C33.5 17.7465 33.2326 17.1008 32.7565 16.6247C32.2804 16.1487 31.6348 15.8812 30.9615 15.8812ZM31.8077 30.2659C31.8077 30.4903 31.7185 30.7055 31.5599 30.8642C31.4012 31.0229 31.186 31.112 30.9615 31.112H14.0385C13.814 31.112 13.5988 31.0229 13.4401 30.8642C13.2815 30.7055 13.1923 30.4903 13.1923 30.2659V18.4197C13.1923 18.1953 13.2815 17.9801 13.4401 17.8214C13.5988 17.6627 13.814 17.5735 14.0385 17.5735H17.4231C17.5624 17.5736 17.6996 17.5393 17.8225 17.4736C17.9454 17.4079 18.0502 17.3129 18.1275 17.197L19.5681 15.0351H25.4309L26.8725 17.197C26.9498 17.3129 27.0546 17.4079 27.1775 17.4736C27.3004 17.5393 27.4376 17.5736 27.5769 17.5735H30.9615C31.186 17.5735 31.4012 17.6627 31.5599 17.8214C31.7185 17.9801 31.8077 18.1953 31.8077 18.4197V30.2659ZM22.5 19.2659C21.5796 19.2659 20.6798 19.5388 19.9145 20.0502C19.1491 20.5615 18.5526 21.2884 18.2004 22.1387C17.8482 22.9891 17.756 23.9249 17.9356 24.8276C18.1151 25.7304 18.5584 26.5596 19.2092 27.2105C19.8601 27.8613 20.6893 28.3046 21.5921 28.4841C22.4948 28.6637 23.4306 28.5715 24.281 28.2193C25.1313 27.8671 25.8582 27.2706 26.3695 26.5052C26.8809 25.7399 27.1538 24.8401 27.1538 23.9197C27.1524 22.6858 26.6617 21.5029 25.7892 20.6305C24.9168 19.758 23.7338 19.2673 22.5 19.2659ZM22.5 26.8812C21.9143 26.8812 21.3417 26.7075 20.8547 26.3821C20.3676 26.0567 19.988 25.5942 19.7639 25.053C19.5397 24.5119 19.4811 23.9164 19.5954 23.3419C19.7096 22.7674 19.9917 22.2398 20.4059 21.8256C20.8201 21.4114 21.3477 21.1293 21.9222 21.0151C22.4967 20.9008 23.0922 20.9594 23.6333 21.1836C24.1745 21.4077 24.637 21.7873 24.9624 22.2744C25.2878 22.7614 25.4615 23.334 25.4615 23.9197C25.4615 24.7051 25.1495 25.4584 24.5941 26.0138C24.0387 26.5692 23.2854 26.8812 22.5 26.8812Z" fill="#487063"/>
</svg>
