<svg width="80" height="81" viewBox="0 0 80 81" fill="none" xmlns="http://www.w3.org/2000/svg">
<path d="M37.8334 13.1408C39.2526 12.7587 40.7475 12.7587 42.1667 13.1408C43.79 13.5775 45.1934 14.6675 46.9 15.9875L47.2334 16.2475L47.89 16.7542C48.7 17.3775 48.8934 17.5208 49.0867 17.6242C49.2956 17.7375 49.5134 17.8275 49.74 17.8942C49.95 17.9575 50.1867 17.9942 51.2 18.1275L52.0234 18.2275L52.4434 18.2842C54.5834 18.5575 56.3434 18.7808 57.8 19.6175C59.0767 20.3508 60.1334 21.4075 60.8667 22.6842C61.7034 24.1375 61.9267 25.9008 62.2 28.0408L62.2534 28.4608L62.36 29.2842C62.49 30.2975 62.5267 30.5342 62.59 30.7442C62.6567 30.9708 62.7456 31.1886 62.8567 31.3975C62.9634 31.5908 63.1067 31.7842 63.73 32.5942L64.2367 33.2508L64.4967 33.5842C65.8167 35.2908 66.9067 36.6942 67.3434 38.3175C67.7255 39.7367 67.7255 41.2317 67.3434 42.6508C66.9067 44.2742 65.8167 45.6775 64.4967 47.3842L64.2367 47.7175L63.73 48.3742C63.1067 49.1842 62.9634 49.3775 62.86 49.5708C62.7471 49.7784 62.6566 49.9974 62.59 50.2242C62.5267 50.4342 62.49 50.6708 62.3567 51.6842L62.2567 52.5075L62.2 52.9275C61.9267 55.0675 61.7034 56.8275 60.8667 58.2842C60.1334 59.5608 59.0767 60.6175 57.8 61.3508C56.3467 62.1875 54.5834 62.4108 52.4434 62.6842L52.0234 62.7375L51.2 62.8442C50.1867 62.9742 49.95 63.0108 49.74 63.0742C49.5134 63.1397 49.2944 63.2291 49.0867 63.3408C48.8934 63.4475 48.7 63.5908 47.89 64.2142L47.2334 64.7208L46.9 64.9808C45.1934 66.3008 43.79 67.3908 42.1667 67.8275C40.7475 68.2096 39.2526 68.2096 37.8334 67.8275C36.21 67.3908 34.8067 66.3008 33.1 64.9808L32.7667 64.7208L32.11 64.2142C31.3 63.5908 31.1067 63.4475 30.9134 63.3442C30.7058 63.2313 30.4868 63.1408 30.26 63.0742C30.05 63.0108 29.8134 62.9742 28.8 62.8408L27.9767 62.7408L27.5567 62.6842C25.4167 62.4108 23.6567 62.1875 22.2 61.3508C20.9251 60.6172 19.867 59.5591 19.1334 58.2842C18.2967 56.8308 18.0734 55.0675 17.8 52.9275L17.7467 52.5075L17.64 51.6842C17.51 50.6708 17.4734 50.4342 17.41 50.2242C17.3445 49.9976 17.2551 49.7786 17.1434 49.5708C17.0367 49.3775 16.8934 49.1842 16.27 48.3742L15.7634 47.7175L15.5034 47.3842C14.1834 45.6775 13.0934 44.2742 12.6567 42.6508C12.2746 41.2317 12.2746 39.7367 12.6567 38.3175C13.0934 36.6942 14.1834 35.2908 15.5034 33.5842L15.7634 33.2508L16.27 32.5942C16.8934 31.7842 17.0367 31.5908 17.14 31.3975C17.253 31.1899 17.3435 30.9709 17.41 30.7442C17.4734 30.5342 17.51 30.2975 17.6434 29.2842L17.7434 28.4608L17.8 28.0408C18.0734 25.9008 18.2967 24.1408 19.1334 22.6842C19.867 21.4092 20.9251 20.3512 22.2 19.6175C23.6534 18.7808 25.4167 18.5575 27.5567 18.2842L27.9767 18.2308L28.8 18.1242C29.8134 17.9942 30.05 17.9575 30.26 17.8942C30.4866 17.8287 30.7057 17.7393 30.9134 17.6275C31.1067 17.5208 31.3 17.3775 32.11 16.7542L32.7667 16.2475L33.1 15.9875C34.8067 14.6675 36.21 13.5775 37.8334 13.1408ZM40.8667 17.9708C40.299 17.818 39.701 17.818 39.1334 17.9708C38.6067 18.1108 38.0467 18.4875 35.8234 20.2042L35.1667 20.7108L35.0467 20.8008C34.4134 21.2908 33.8934 21.6975 33.3034 22.0175C32.7865 22.2988 32.2412 22.5245 31.6767 22.6908C30.99 22.8708 30.29 22.9957 29.5834 23.0642L29.4367 23.0842L28.6134 23.1908C25.8267 23.5475 25.1667 23.6808 24.6934 23.9508C24.1834 24.2443 23.7602 24.6675 23.4667 25.1775C23.1967 25.6508 23.0634 26.3108 22.7067 29.0975L22.6 29.9208L22.58 30.0675C22.48 30.8608 22.3967 31.5175 22.2067 32.1608C22.0403 32.7253 21.8146 33.2706 21.5334 33.7875C21.1749 34.4001 20.768 34.983 20.3167 35.5308L20.2267 35.6508L19.72 36.3075C18.0034 38.5308 17.6267 39.0908 17.4867 39.6175C17.3339 40.1852 17.3339 40.7832 17.4867 41.3508C17.6267 41.8775 18.0034 42.4375 19.72 44.6608L20.2267 45.3175L20.3167 45.4375C20.8067 46.0708 21.2134 46.5908 21.5334 47.1808C21.8146 47.6978 22.0403 48.243 22.2067 48.8075C22.4014 49.5416 22.533 50.291 22.6 51.0475L22.7067 51.8708C23.0634 54.6575 23.1967 55.3208 23.4667 55.7908C23.7602 56.3008 24.1834 56.724 24.6934 57.0175C25.1667 57.2875 25.8267 57.4208 28.6134 57.7775L29.4367 57.8842L29.5834 57.9042C30.3767 58.0042 31.0334 58.0875 31.6767 58.2775C32.2434 58.4442 32.7856 58.6697 33.3034 58.9542C33.8934 59.2708 34.4167 59.6775 35.0467 60.1675L35.1667 60.2575L35.8234 60.7642C38.0467 62.4808 38.6067 62.8575 39.1334 62.9975C39.701 63.1504 40.299 63.1504 40.8667 62.9975C41.3934 62.8575 41.9534 62.4808 44.1767 60.7642L44.8334 60.2575L44.9534 60.1675C45.5867 59.6775 46.1067 59.2708 46.6967 58.9542C47.2135 58.6718 47.7588 58.445 48.3234 58.2775C48.9667 58.0875 49.6234 58.0042 50.4167 57.9042L50.5634 57.8842L51.3867 57.7775C54.1734 57.4208 54.8367 57.2875 55.3067 57.0175C55.8167 56.724 56.2399 56.3008 56.5334 55.7908C56.8034 55.3208 56.9367 54.6575 57.2934 51.8708L57.4 51.0475L57.42 50.9008C57.52 50.1075 57.6034 49.4508 57.7934 48.8075C57.9608 48.2429 58.1876 47.6976 58.47 47.1808C58.7867 46.5908 59.1934 46.0675 59.6834 45.4375L59.7734 45.3175L60.28 44.6608C61.9967 42.4375 62.3734 41.8775 62.5134 41.3508C62.6662 40.7832 62.6662 40.1852 62.5134 39.6175C62.3734 39.0908 61.9967 38.5308 60.28 36.3075L59.7734 35.6508L59.6834 35.5308C59.2332 34.9829 58.8275 34.4 58.47 33.7875C58.1876 33.2707 57.9608 32.7255 57.7934 32.1608C57.6134 31.4741 57.4886 30.7741 57.42 30.0675L57.4 29.9208L57.2934 29.0975C56.9367 26.3108 56.8034 25.6508 56.5334 25.1775C56.2399 24.6675 55.8167 24.2443 55.3067 23.9508C54.8367 23.6808 54.1734 23.5475 51.3867 23.1908L50.5634 23.0842L50.4167 23.0642C49.7101 22.9957 49.0101 22.8708 48.3234 22.6908C47.7589 22.5245 47.2136 22.2988 46.6967 22.0175C46.0841 21.659 45.5012 21.2522 44.9534 20.8008L44.8334 20.7108L44.1767 20.2042C41.9534 18.4875 41.3934 18.1108 40.8667 17.9708Z" fill="white"/>
<path d="M52.3567 31.4608C52.9816 32.0859 53.3326 32.9336 53.3326 33.8175C53.3326 34.7014 52.9816 35.5491 52.3567 36.1742L39.0234 49.5075C38.3983 50.1324 37.5506 50.4834 36.6667 50.4834C35.7828 50.4834 34.9351 50.1324 34.31 49.5075L27.6434 42.8408C27.325 42.5333 27.0711 42.1655 26.8964 41.7588C26.7217 41.3522 26.6297 40.9148 26.6259 40.4722C26.622 40.0296 26.7064 39.5906 26.874 39.181C27.0416 38.7713 27.2891 38.3991 27.602 38.0862C27.915 37.7732 28.2872 37.5257 28.6968 37.3581C29.1065 37.1905 29.5454 37.1061 29.988 37.11C30.4306 37.1138 30.868 37.2058 31.2747 37.3805C31.6814 37.5552 32.0492 37.8091 32.3567 38.1275L36.6667 42.4375L47.6434 31.4608C48.2685 30.8359 49.1161 30.4849 50 30.4849C50.8839 30.4849 51.7316 30.8359 52.3567 31.4608Z" fill="white"/>
</svg>
