<svg width="42" height="42" viewBox="0 0 42 42" fill="none" xmlns="http://www.w3.org/2000/svg">
<path d="M20.9583 23.2917L12.7917 31.4583C12.4861 31.7639 12.0972 31.9167 11.625 31.9167C11.1528 31.9167 10.7639 31.7639 10.4583 31.4583C10.1528 31.1528 10 30.7639 10 30.2917C10 29.8194 10.1528 29.4306 10.4583 29.125L18.625 20.9583L10.4583 12.7917C10.1528 12.4861 10 12.0972 10 11.625C10 11.1528 10.1528 10.7639 10.4583 10.4583C10.7639 10.1528 11.1528 10 11.625 10C12.0972 10 12.4861 10.1528 12.7917 10.4583L20.9583 18.625L29.125 10.4583C29.4306 10.1528 29.8194 10 30.2917 10C30.7639 10 31.1528 10.1528 31.4583 10.4583C31.7639 10.7639 31.9167 11.1528 31.9167 11.625C31.9167 12.0972 31.7639 12.4861 31.4583 12.7917L23.2917 20.9583L31.4583 29.125C31.7639 29.4306 31.9167 29.8194 31.9167 30.2917C31.9167 30.7639 31.7639 31.1528 31.4583 31.4583C31.1528 31.7639 30.7639 31.9167 30.2917 31.9167C29.8194 31.9167 29.4306 31.7639 29.125 31.4583L20.9583 23.2917Z" fill="#3F403F"/>
</svg>
