<svg width="72" height="72" viewBox="0 0 72 72" fill="none" xmlns="http://www.w3.org/2000/svg">
<path d="M35.9583 38.2917L27.7917 46.4583C27.4861 46.7639 27.0972 46.9167 26.625 46.9167C26.1528 46.9167 25.7639 46.7639 25.4583 46.4583C25.1528 46.1528 25 45.7639 25 45.2917C25 44.8194 25.1528 44.4306 25.4583 44.125L33.625 35.9583L25.4583 27.7917C25.1528 27.4861 25 27.0972 25 26.625C25 26.1528 25.1528 25.7639 25.4583 25.4583C25.7639 25.1528 26.1528 25 26.625 25C27.0972 25 27.4861 25.1528 27.7917 25.4583L35.9583 33.625L44.125 25.4583C44.4306 25.1528 44.8194 25 45.2917 25C45.7639 25 46.1528 25.1528 46.4583 25.4583C46.7639 25.7639 46.9167 26.1528 46.9167 26.625C46.9167 27.0972 46.7639 27.4861 46.4583 27.7917L38.2917 35.9583L46.4583 44.125C46.7639 44.4306 46.9167 44.8194 46.9167 45.2917C46.9167 45.7639 46.7639 46.1528 46.4583 46.4583C46.1528 46.7639 45.7639 46.9167 45.2917 46.9167C44.8194 46.9167 44.4306 46.7639 44.125 46.4583L35.9583 38.2917Z" fill="#3F403F"/>
</svg>
