<svg width="46" height="45" viewBox="0 0 46 45" fill="none" xmlns="http://www.w3.org/2000/svg">
<rect x="0.5" width="45" height="45" rx="22.5" fill="white"/>
<path d="M15.7084 26.667L14.6667 30.8337L18.8334 29.792L30.9021 17.7233C31.2927 17.3326 31.5121 16.8028 31.5121 16.2503C31.5121 15.6979 31.2927 15.1681 30.9021 14.7774L30.7229 14.5983C30.3323 14.2077 29.8024 13.9883 29.25 13.9883C28.6976 13.9883 28.1678 14.2077 27.7771 14.5983L15.7084 26.667Z" stroke="#487063" stroke-linecap="round" stroke-linejoin="round"/>
<path d="M15.7084 26.6667L14.6667 30.8333L18.8334 29.7917L29.25 19.375L26.125 16.25L15.7084 26.6667Z" fill="#487063"/>
<path d="M26.125 16.25L29.25 19.375M24.0417 30.8333H32.375" stroke="#487063" stroke-linecap="round" stroke-linejoin="round"/>
</svg>
