<svg width="25" height="25" viewBox="0 0 25 25" fill="none" xmlns="http://www.w3.org/2000/svg">
<path d="M4.83755 5H21.4001C22.9626 5 23.75 5.7375 23.75 7.2375V17.7625C23.75 19.25 22.9626 20 21.4001 20H4.83755C3.27505 20 2.48755 19.25 2.48755 17.7625V7.2375C2.48755 5.7375 3.27505 5 4.83755 5ZM13.1125 15.75L21.5375 8.8375C21.8375 8.5875 22.0751 8.0125 21.7001 7.5C21.3375 6.9875 20.675 6.975 20.2375 7.2875L13.1125 12.1125L6.00005 7.2875C5.56255 6.975 4.90005 6.9875 4.53755 7.5C4.16255 8.0125 4.40005 8.5875 4.70005 8.8375L13.1125 15.75Z" fill="#487063"/>
</svg>
