<svg width="25" height="25" viewBox="0 0 25 25" fill="none" xmlns="http://www.w3.org/2000/svg">
<path d="M17.1875 2.34375V3.90625H19.9711L17.3344 6.56719C16.392 5.85545 15.2435 5.46987 14.0625 5.46875C12.6016 5.46875 11.2375 6.04687 10.2047 7.08047C9.69417 7.58483 9.28886 8.18552 9.01225 8.84771C8.73565 9.5099 8.59325 10.2204 8.59332 10.9381C8.5934 11.6557 8.73594 12.3662 9.01267 13.0283C9.28941 13.6904 9.69485 14.2911 10.2055 14.7953C10.8852 15.475 11.6945 15.9633 12.5977 16.2109C12.6867 16.143 12.7867 16.0719 12.8664 15.9922C13.1939 15.6591 13.4292 15.2467 13.5492 14.7953C12.6986 14.6907 11.9077 14.3036 11.3031 13.6961C10.5656 12.9594 10.1562 11.9812 10.1562 10.9375C10.1562 9.89375 10.5664 8.91719 11.3047 8.17969C12.0406 7.43984 13.0187 7.03125 14.0625 7.03125C15.1062 7.03125 16.0836 7.44141 16.8203 8.17969C17.1847 8.54051 17.4738 8.97007 17.671 9.44347C17.8681 9.91687 17.9693 10.4247 17.9687 10.9375C17.9687 11.6133 17.7773 12.2422 17.4562 12.8172C17.5312 13.2203 17.5781 13.6438 17.5781 14.0625C17.5781 14.4526 17.5456 14.8354 17.4805 15.2109C17.6367 15.0836 17.7758 14.9391 17.9203 14.7953C18.9531 13.7609 19.5312 12.3984 19.5312 10.9375C19.5312 9.74219 19.1375 8.60625 18.4328 7.66563L21.0937 5.02969V7.8125H22.6562V2.34375H17.1875ZM12.4023 8.78906C12.3133 8.85703 12.2133 8.92812 12.1336 9.00781C11.7961 9.34687 11.5758 9.75781 11.4508 10.2055C12.3023 10.3148 13.0797 10.6867 13.6969 11.3039C14.4352 12.0406 14.8453 13.0188 14.8453 14.0617C14.8453 15.1047 14.4352 16.082 13.6969 16.8195C12.9594 17.5602 11.9812 17.9688 10.9375 17.9688C9.89375 17.9688 8.91641 17.5586 8.17969 16.8203C7.81495 16.4598 7.52558 16.0302 7.32842 15.5568C7.13126 15.0833 7.03024 14.5754 7.03125 14.0625C7.03125 13.3867 7.22266 12.7578 7.54375 12.1828C7.4662 11.7722 7.42541 11.3554 7.42188 10.9375C7.42188 10.5479 7.45443 10.1651 7.51953 9.78906C7.36328 9.91641 7.225 10.0609 7.07969 10.2055C6.04844 11.2375 5.46875 12.6016 5.46875 14.0625C5.46875 15.2578 5.8625 16.3938 6.56719 17.3344L5.25 18.6523L3.6875 17.0898L2.5625 18.1883L4.125 19.7508L2.5625 21.3133L3.6875 22.4383L5.25 20.8758L6.8125 22.4383L7.91016 21.3133L6.34766 19.7508L7.66641 18.4336C8.60788 19.1464 9.75661 19.5319 10.9375 19.5312C12.3984 19.5312 13.7625 18.9531 14.7953 17.9195C15.8281 16.8875 16.4062 15.5234 16.4062 14.0625C16.4062 12.6016 15.8281 11.2391 14.7945 10.2047C14.1148 9.525 13.3055 9.03672 12.4023 8.78906Z" fill="#487063"/>
</svg>
