<svg width="30" height="30" viewBox="0 0 30 30" fill="none" xmlns="http://www.w3.org/2000/svg">
<g clip-path="url(#clip0_478_3784)">
<path d="M16.8462 4.84615C16.8462 3.825 16.0212 3 15 3C13.9788 3 13.1538 3.825 13.1538 4.84615V13.1538H4.84615C3.825 13.1538 3 13.9788 3 15C3 16.0212 3.825 16.8462 4.84615 16.8462H13.1538V25.1538C13.1538 26.175 13.9788 27 15 27C16.0212 27 16.8462 26.175 16.8462 25.1538V16.8462H25.1538C26.175 16.8462 27 16.0212 27 15C27 13.9788 26.175 13.1538 25.1538 13.1538H16.8462V4.84615Z" fill="black"/>
</g>
<defs>
<clipPath id="clip0_478_3784">
<rect y="13.25" width="30" height="3.5" rx="1.75" fill="white"/>
</clipPath>
</defs>
</svg>
