<svg width="40" height="40" viewBox="0 0 40 40" fill="none" xmlns="http://www.w3.org/2000/svg">
<path d="M19.9998 20C18.1665 20 16.5971 19.3472 15.2915 18.0417C13.9859 16.7361 13.3332 15.1667 13.3332 13.3334C13.3332 11.5 13.9859 9.93058 15.2915 8.62502C16.5971 7.31946 18.1665 6.66669 19.9998 6.66669C21.8332 6.66669 23.4026 7.31946 24.7082 8.62502C26.0137 9.93058 26.6665 11.5 26.6665 13.3334C26.6665 15.1667 26.0137 16.7361 24.7082 18.0417C23.4026 19.3472 21.8332 20 19.9998 20ZM6.6665 30V28.6667C6.6665 27.7222 6.90956 26.8542 7.39567 26.0625C7.88178 25.2709 8.52761 24.6667 9.33317 24.25C11.0554 23.3889 12.8054 22.7431 14.5832 22.3125C16.3609 21.882 18.1665 21.6667 19.9998 21.6667C21.8332 21.6667 23.6387 21.882 25.4165 22.3125C27.1943 22.7431 28.9443 23.3889 30.6665 24.25C31.4721 24.6667 32.1179 25.2709 32.604 26.0625C33.0901 26.8542 33.3332 27.7222 33.3332 28.6667V30C33.3332 30.9167 33.0068 31.7014 32.354 32.3542C31.7012 33.007 30.9165 33.3334 29.9998 33.3334H9.99984C9.08317 33.3334 8.29845 33.007 7.64567 32.3542C6.99289 31.7014 6.6665 30.9167 6.6665 30ZM9.99984 30H29.9998V28.6667C29.9998 28.3611 29.9234 28.0834 29.7707 27.8334C29.6179 27.5834 29.4165 27.3889 29.1665 27.25C27.6665 26.5 26.1526 25.9375 24.6248 25.5625C23.0971 25.1875 21.5554 25 19.9998 25C18.4443 25 16.9026 25.1875 15.3748 25.5625C13.8471 25.9375 12.3332 26.5 10.8332 27.25C10.5832 27.3889 10.3818 27.5834 10.229 27.8334C10.0762 28.0834 9.99984 28.3611 9.99984 28.6667V30ZM19.9998 16.6667C20.9165 16.6667 21.7012 16.3403 22.354 15.6875C23.0068 15.0347 23.3332 14.25 23.3332 13.3334C23.3332 12.4167 23.0068 11.632 22.354 10.9792C21.7012 10.3264 20.9165 10 19.9998 10C19.0832 10 18.2984 10.3264 17.6457 10.9792C16.9929 11.632 16.6665 12.4167 16.6665 13.3334C16.6665 14.25 16.9929 15.0347 17.6457 15.6875C18.2984 16.3403 19.0832 16.6667 19.9998 16.6667Z" fill="#3F403F"/>
</svg>
