<svg width="25" height="25" viewBox="0 0 25 25" fill="none" xmlns="http://www.w3.org/2000/svg">
<path fill-rule="evenodd" clip-rule="evenodd" d="M8.33333 7.29167C8.33333 6.1866 8.77232 5.12679 9.55372 4.34539C10.3351 3.56399 11.3949 3.125 12.5 3.125C13.6051 3.125 14.6649 3.56399 15.4463 4.34539C16.2277 5.12679 16.6667 6.1866 16.6667 7.29167C16.6667 8.39674 16.2277 9.45654 15.4463 10.2379C14.6649 11.0193 13.6051 11.4583 12.5 11.4583C11.3949 11.4583 10.3351 11.0193 9.55372 10.2379C8.77232 9.45654 8.33333 8.39674 8.33333 7.29167ZM8.33333 13.5417C6.952 13.5417 5.62724 14.0904 4.65049 15.0672C3.67373 16.0439 3.125 17.3687 3.125 18.75C3.125 19.5788 3.45424 20.3737 4.04029 20.9597C4.62634 21.5458 5.4212 21.875 6.25 21.875H18.75C19.5788 21.875 20.3737 21.5458 20.9597 20.9597C21.5458 20.3737 21.875 19.5788 21.875 18.75C21.875 17.3687 21.3263 16.0439 20.3495 15.0672C19.3728 14.0904 18.048 13.5417 16.6667 13.5417H8.33333Z" fill="#487063"/>
</svg>
