<svg width="25" height="24" viewBox="0 0 25 24" fill="none" xmlns="http://www.w3.org/2000/svg">
<path d="M20.3258 21L14.0258 14.7C13.5258 15.1 12.9508 15.4167 12.3008 15.65C11.6508 15.8833 10.9592 16 10.2258 16C8.40916 16 6.87166 15.3708 5.61333 14.1125C4.355 12.8542 3.72583 11.3167 3.72583 9.5C3.72583 7.68333 4.355 6.14583 5.61333 4.8875C6.87166 3.62917 8.40916 3 10.2258 3C12.0425 3 13.58 3.62917 14.8383 4.8875C16.0967 6.14583 16.7258 7.68333 16.7258 9.5C16.7258 10.2333 16.6092 10.925 16.3758 11.575C16.1425 12.225 15.8258 12.8 15.4258 13.3L21.7258 19.6L20.3258 21ZM10.2258 14C11.4758 14 12.5383 13.5625 13.4133 12.6875C14.2883 11.8125 14.7258 10.75 14.7258 9.5C14.7258 8.25 14.2883 7.1875 13.4133 6.3125C12.5383 5.4375 11.4758 5 10.2258 5C8.97583 5 7.91333 5.4375 7.03833 6.3125C6.16333 7.1875 5.72583 8.25 5.72583 9.5C5.72583 10.75 6.16333 11.8125 7.03833 12.6875C7.91333 13.5625 8.97583 14 10.2258 14Z" fill="black"/>
</svg>
