<svg width="40" height="40" viewBox="0 0 40 40" fill="none" xmlns="http://www.w3.org/2000/svg">
<path d="M14.8427 0H25.1573L26.3405 5.88545C27.3203 6.32185 28.2518 6.85805 29.1203 7.48546L34.8427 5.56L40 14.44L35.4627 18.4036C35.5726 19.4651 35.5726 20.5349 35.4627 21.5964L39.9982 25.56L34.8427 34.44L29.1203 32.5164C28.2517 33.1431 27.3202 33.6787 26.3405 34.1145L25.1554 40H14.8427L13.6595 34.1145C12.6798 33.6781 11.7482 33.1419 10.8797 32.5145L5.15728 34.44L0 25.56L4.53731 21.5964C4.42757 20.5349 4.42757 19.4651 4.53731 18.4036L0.00182891 14.44L5.15911 5.56L10.8797 7.48364C11.7482 6.85685 12.6798 6.32126 13.6595 5.88545L14.8427 0ZM17.842 3.63636L16.8508 8.55455L15.8906 8.90545C14.6181 9.37226 13.4354 10.0524 12.3939 10.9164L11.6075 11.5691L6.82516 9.96L4.66715 13.6764L8.45647 16.9873L8.28273 17.9891C8.0534 19.32 8.0534 20.68 8.28273 22.0109L8.45647 23.0109L4.66533 26.3236L6.82334 30.04L11.6075 28.4309L12.3939 29.0836C13.436 29.9468 14.6185 30.6268 15.8906 31.0945L16.8508 31.4455L17.842 36.3636H22.158L23.1492 31.4455L24.1094 31.0945C25.3819 30.6277 26.5646 29.9475 27.6061 29.0836L28.3925 28.4309L33.1767 30.04L35.3347 26.3236L31.5454 23.0127L31.7173 22.0109C31.9465 20.68 31.9465 19.32 31.7173 17.9891L31.5454 16.9891L35.3347 13.6764L33.1767 9.96L28.3925 11.5691L27.6061 10.9164C26.5646 10.0523 25.3819 9.37219 24.1094 8.90545L23.1492 8.55455L22.158 3.63636H17.842ZM20 14.5455C18.5449 14.5455 17.1494 15.1201 16.1205 16.1431C15.0916 17.166 14.5135 18.5534 14.5135 20C14.5135 21.4466 15.0916 22.834 16.1205 23.8569C17.1494 24.8799 18.5449 25.4545 20 25.4545C21.4551 25.4545 22.8506 24.8799 23.8795 23.8569C24.9084 22.834 25.4865 21.4466 25.4865 20C25.4865 18.5534 24.9084 17.166 23.8795 16.1431C22.8506 15.1201 21.4551 14.5455 20 14.5455ZM10.8559 20C10.8559 17.5889 11.8193 15.2766 13.5341 13.5718C15.249 11.8669 17.5748 10.9091 20 10.9091C22.4252 10.9091 24.751 11.8669 26.4659 13.5718C28.1807 15.2766 29.1441 17.5889 29.1441 20C29.1441 22.4111 28.1807 24.7234 26.4659 26.4282C24.751 28.1331 22.4252 29.0909 20 29.0909C17.5748 29.0909 15.249 28.1331 13.5341 26.4282C11.8193 24.7234 10.8559 22.4111 10.8559 20Z" fill="#3F403F"/>
</svg>
