<svg width="26" height="26" viewBox="0 0 26 26" fill="none" xmlns="http://www.w3.org/2000/svg">
<g clip-path="url(#clip0_407_63)">
<path d="M12.1731 22.1838C12.6816 21.8769 13.3182 21.8769 13.8267 22.1838L19.0565 25.3404C20.2683 26.0717 21.7631 24.9853 21.4415 23.607L20.0535 17.6584C19.9185 17.08 20.1151 16.4744 20.564 16.0855L25.1867 12.0809C26.2565 11.1541 25.6847 9.39688 24.2743 9.27727L18.1914 8.76136C17.6001 8.71121 17.0851 8.33788 16.8535 7.79148L14.473 2.17528C13.9217 0.874474 12.0781 0.874478 11.5268 2.17529L9.14633 7.79148C8.91473 8.33788 8.39974 8.71121 7.8084 8.76136L1.72548 9.27727C0.315167 9.39688 -0.256717 11.1541 0.813074 12.0809L5.43583 16.0855C5.88477 16.4744 6.08132 17.08 5.94636 17.6584L4.55836 23.607C4.23675 24.9853 5.73155 26.0717 6.94329 25.3404L12.1731 22.1838Z" fill="#FFDF85"/>
</g>
<defs>
<clipPath id="clip0_407_63">
<rect width="26" height="26" fill="white"/>
</clipPath>
</defs>
</svg>
