<svg width="81" height="80" viewBox="0 0 81 80" fill="none" xmlns="http://www.w3.org/2000/svg">
<path d="M35.8337 46.0003L28.667 38.8337C28.0559 38.2225 27.2781 37.917 26.3337 37.917C25.3892 37.917 24.6114 38.2225 24.0003 38.8337C23.3892 39.4448 23.0837 40.2225 23.0837 41.167C23.0837 42.1114 23.3892 42.8892 24.0003 43.5003L33.5003 53.0003C34.167 53.667 34.9448 54.0003 35.8337 54.0003C36.7225 54.0003 37.5003 53.667 38.167 53.0003L57.0003 34.167C57.6114 33.5559 57.917 32.7781 57.917 31.8337C57.917 30.8892 57.6114 30.1114 57.0003 29.5003C56.3892 28.8892 55.6114 28.5837 54.667 28.5837C53.7225 28.5837 52.9448 28.8892 52.3337 29.5003L35.8337 46.0003ZM40.5003 73.3337C35.8892 73.3337 31.5559 72.4587 27.5003 70.7087C23.4448 68.9587 19.917 66.5837 16.917 63.5837C13.917 60.5837 11.542 57.0559 9.79199 53.0003C8.04199 48.9448 7.16699 44.6114 7.16699 40.0003C7.16699 35.3892 8.04199 31.0559 9.79199 27.0003C11.542 22.9448 13.917 19.417 16.917 16.417C19.917 13.417 23.4448 11.042 27.5003 9.29199C31.5559 7.54199 35.8892 6.66699 40.5003 6.66699C45.1114 6.66699 49.4448 7.54199 53.5003 9.29199C57.5559 11.042 61.0837 13.417 64.0837 16.417C67.0837 19.417 69.4587 22.9448 71.2087 27.0003C72.9587 31.0559 73.8337 35.3892 73.8337 40.0003C73.8337 44.6114 72.9587 48.9448 71.2087 53.0003C69.4587 57.0559 67.0837 60.5837 64.0837 63.5837C61.0837 66.5837 57.5559 68.9587 53.5003 70.7087C49.4448 72.4587 45.1114 73.3337 40.5003 73.3337Z" fill="#5B8E7D"/>
</svg>
