<svg width="80" height="81" viewBox="0 0 80 81" fill="none" xmlns="http://www.w3.org/2000/svg">
<path fill-rule="evenodd" clip-rule="evenodd" d="M36.5833 10.4904C36.7785 11.3523 36.6233 12.2564 36.152 13.004C35.6807 13.7516 34.9318 14.2814 34.07 14.477C33.4159 14.6259 32.7677 14.7993 32.1267 14.997C31.7084 15.1262 31.2688 15.1717 30.833 15.1309C30.3971 15.0901 29.9736 14.9639 29.5865 14.7595C29.1994 14.555 28.8564 14.2764 28.5771 13.9394C28.2977 13.6024 28.0875 13.2136 27.9583 12.7954C27.8292 12.3771 27.7837 11.9375 27.8245 11.5017C27.8652 11.0658 27.9914 10.6423 28.1959 10.2552C28.4003 9.86815 28.679 9.52514 29.016 9.24578C29.353 8.96642 29.7417 8.75616 30.16 8.62703C30.96 8.37814 31.7711 8.16148 32.5933 7.97703C33.0203 7.87992 33.4623 7.86791 33.894 7.94168C34.3256 8.01544 34.7386 8.17355 35.1091 8.40695C35.4796 8.64036 35.8005 8.94449 36.0535 9.30198C36.3065 9.65946 36.4865 10.0633 36.5833 10.4904ZM43.4167 10.4904C43.6122 9.62853 44.1421 8.87965 44.8897 8.40834C45.6372 7.93704 46.5414 7.7819 47.4033 7.97703C62.25 11.3437 73.3366 24.617 73.3366 40.4837C73.3366 58.8937 58.41 73.817 40.0033 73.817C24.1333 73.817 10.86 62.7337 7.49332 47.887C7.32051 47.0336 7.48849 46.1465 7.96132 45.4154C8.43416 44.6842 9.17431 44.1671 10.0235 43.9746C10.8727 43.7821 11.7634 43.9296 12.5053 44.3854C13.2472 44.8412 13.7813 45.5692 13.9933 46.4137C15.054 51.0596 17.3403 55.3363 20.6143 58.7989C23.8883 62.2616 28.0304 64.7837 32.6096 66.1028C37.1888 67.4218 42.0378 67.4897 46.6521 66.2994C51.2665 65.109 55.4775 62.7039 58.8472 59.3342C62.2168 55.9646 64.6219 51.7535 65.8123 47.1392C67.0027 42.5249 66.9348 37.6758 65.6157 33.0966C64.2966 28.5174 61.7746 24.3754 58.3119 21.1014C54.8492 17.8274 50.5725 15.5411 45.9267 14.4804C45.0647 14.2841 44.3161 13.7534 43.8453 13.0052C43.3746 12.2569 43.2204 11.3523 43.4167 10.4904ZM22.0467 16.217C22.3448 16.538 22.5767 16.9146 22.7291 17.3252C22.8816 17.7359 22.9517 18.1726 22.9352 18.6103C22.9188 19.0481 22.8163 19.4783 22.6335 19.8764C22.4507 20.2745 22.1913 20.6326 21.87 20.9304C21.3767 21.3859 20.9022 21.8593 20.4467 22.3504C19.8411 22.9804 19.0124 23.3475 18.1389 23.3726C17.2653 23.3976 16.4169 23.0786 15.7763 22.4843C15.1356 21.89 14.754 21.0678 14.7135 20.1949C14.6731 19.322 14.9771 18.4681 15.56 17.817C16.1267 17.2037 16.7178 16.6115 17.3333 16.0404C17.6543 15.7423 18.0309 15.5103 18.4415 15.3579C18.8522 15.2054 19.2889 15.1354 19.7266 15.1518C20.1643 15.1682 20.5946 15.2707 20.9927 15.4535C21.3907 15.6363 21.7489 15.8957 22.0467 16.217ZM40 20.4837C40.884 20.4837 41.7319 20.8349 42.357 21.46C42.9821 22.0851 43.3333 22.933 43.3333 23.817V39.1037L52.3567 48.127C52.9638 48.7557 53.2998 49.5977 53.2922 50.4717C53.2846 51.3457 52.9341 52.1817 52.316 52.7998C51.698 53.4178 50.862 53.7684 49.988 53.7759C49.114 53.7835 48.272 53.4476 47.6433 52.8404L37.6433 42.8404C37.0182 42.2154 36.6668 41.3677 36.6667 40.4837V23.817C36.6667 22.933 37.0178 22.0851 37.643 21.46C38.2681 20.8349 39.1159 20.4837 40 20.4837ZM12.31 28.4437C13.1546 28.7042 13.8612 29.2894 14.2744 30.0708C14.6876 30.8522 14.7735 31.7656 14.5133 32.6104C14.3156 33.2514 14.1421 33.8996 13.9933 34.5537C13.7813 35.3982 13.2472 36.1262 12.5053 36.582C11.7634 37.0378 10.8727 37.1853 10.0235 36.9928C9.17431 36.8003 8.43416 36.2832 7.96132 35.552C7.48849 34.8209 7.32051 33.9338 7.49332 33.0804C7.67999 32.2581 7.89665 31.447 8.14332 30.647C8.40378 29.8024 8.98905 29.0958 9.77042 28.6826C10.5518 28.2694 11.4653 28.1835 12.31 28.4437Z" fill="white"/>
</svg>
