<svg width="40" height="41" viewBox="0 0 40 41" fill="none" xmlns="http://www.w3.org/2000/svg">
<path d="M15 5.49984V2.1665H25V5.49984H15ZM18.3333 23.8332H21.6667V13.8332H18.3333V23.8332ZM20 37.1665C17.9444 37.1665 16.0069 36.7707 14.1875 35.979C12.3681 35.1873 10.7778 34.1109 9.41667 32.7498C8.05556 31.3887 6.97917 29.7984 6.1875 27.979C5.39583 26.1596 5 24.2221 5 22.1665C5 20.1109 5.39583 18.1734 6.1875 16.354C6.97917 14.5346 8.05556 12.9443 9.41667 11.5832C10.7778 10.2221 12.3681 9.14567 14.1875 8.354C16.0069 7.56234 17.9444 7.1665 20 7.1665C21.7222 7.1665 23.375 7.44428 24.9583 7.99984C26.5417 8.55539 28.0278 9.36095 29.4167 10.4165L31.75 8.08317L34.0833 10.4165L31.75 12.7498C32.8056 14.1387 33.6111 15.6248 34.1667 17.2082C34.7222 18.7915 35 20.4443 35 22.1665C35 24.2221 34.6042 26.1596 33.8125 27.979C33.0208 29.7984 31.9444 31.3887 30.5833 32.7498C29.2222 34.1109 27.6319 35.1873 25.8125 35.979C23.9931 36.7707 22.0556 37.1665 20 37.1665ZM20 33.8332C23.2222 33.8332 25.9722 32.6943 28.25 30.4165C30.5278 28.1387 31.6667 25.3887 31.6667 22.1665C31.6667 18.9443 30.5278 16.1943 28.25 13.9165C25.9722 11.6387 23.2222 10.4998 20 10.4998C16.7778 10.4998 14.0278 11.6387 11.75 13.9165C9.47222 16.1943 8.33333 18.9443 8.33333 22.1665C8.33333 25.3887 9.47222 28.1387 11.75 30.4165C14.0278 32.6943 16.7778 33.8332 20 33.8332Z" fill="#F5F7F2"/>
</svg>
