<svg width="60" height="61" viewBox="0 0 60 61" fill="none" xmlns="http://www.w3.org/2000/svg">
<path d="M16.25 50.4844C12.45 50.4844 9.20833 49.176 6.525 46.5594C3.84167 43.926 2.5 40.7177 2.5 36.9344C2.5 33.6844 3.475 30.7844 5.425 28.2344C7.39167 25.6844 9.95833 24.0594 13.125 23.3594C14.175 19.526 16.2583 16.426 19.375 14.0594C22.5083 11.676 26.05 10.4844 30 10.4844C34.8833 10.4844 39.0167 12.1844 42.4 15.5844C45.8 18.9677 47.5 23.101 47.5 27.9844C50.3833 28.3177 52.7667 29.5677 54.65 31.7344C56.55 33.8677 57.5 36.3677 57.5 39.2344C57.5 42.3677 56.4083 45.026 54.225 47.2094C52.0417 49.3927 49.3833 50.4844 46.25 50.4844H32.5C31.1333 50.4844 29.9583 49.9927 28.975 49.0094C27.9917 48.0427 27.5 46.8677 27.5 45.4844V32.6094L23.5 36.4844L20 32.9844L30 22.9844L40 32.9844L36.5 36.4844L32.5 32.6094V45.4844H46.25C48 45.4844 49.475 44.876 50.675 43.6594C51.8917 42.4594 52.5 40.9844 52.5 39.2344C52.5 37.4844 51.8917 36.0094 50.675 34.8094C49.475 33.5927 48 32.9844 46.25 32.9844H42.5V27.9844C42.5 24.5344 41.2833 21.5844 38.85 19.1344C36.4167 16.701 33.4667 15.4844 30 15.4844C26.55 15.4844 23.6 16.701 21.15 19.1344C18.7167 21.5844 17.5 24.5344 17.5 27.9844H16.25C13.8333 27.9844 11.775 28.8427 10.075 30.5594C8.35833 32.2594 7.5 34.3177 7.5 36.7344C7.5 39.151 8.35833 41.2344 10.075 42.9844C11.775 44.651 13.8333 45.4844 16.25 45.4844H22.5V50.4844" fill="#487063"/>
</svg>
