<svg width="40" height="41" viewBox="0 0 40 41" fill="none" xmlns="http://www.w3.org/2000/svg">
<g clip-path="url(#clip0_43_56)">
<path d="M35 8.32324H5C4.33696 8.32324 3.70107 8.58663 3.23223 9.05548C2.76339 9.52432 2.5 10.1602 2.5 10.8232V30.8232C2.5 31.4863 2.76339 32.1222 3.23223 32.591C3.70107 33.0598 4.33696 33.3232 5 33.3232H35C35.663 33.3232 36.2989 33.0598 36.7678 32.591C37.2366 32.1222 37.5 31.4863 37.5 30.8232V10.8232C37.5 10.1602 37.2366 9.52432 36.7678 9.05548C36.2989 8.58663 35.663 8.32324 35 8.32324ZM32.25 10.8232L20 19.2982L7.75 10.8232H32.25ZM5 30.8232V11.9607L19.2875 21.8482C19.4967 21.9934 19.7453 22.0712 20 22.0712C20.2547 22.0712 20.5033 21.9934 20.7125 21.8482L35 11.9607V30.8232H5Z" fill="#3F403F"/>
</g>
<defs>
<clipPath id="clip0_43_56">
<rect width="40" height="40" fill="white" transform="translate(0 0.823242)"/>
</clipPath>
</defs>
</svg>
