<svg width="39" height="40" viewBox="0 0 39 40" fill="none" xmlns="http://www.w3.org/2000/svg">
<path d="M19.3969 12.3101C14.5821 12.3101 10.5927 16.2307 10.5927 21.1143C10.5927 25.9979 14.5133 29.9185 19.3969 29.9185C24.2805 29.9185 28.2011 25.9291 28.2011 21.1143C28.2011 16.2995 24.2117 12.3101 19.3969 12.3101ZM19.3969 26.7545C16.3016 26.7545 13.7567 24.2095 13.7567 21.1143C13.7567 18.0191 16.3016 15.4741 19.3969 15.4741C22.4921 15.4741 25.0371 18.0191 25.0371 21.1143C25.0371 24.2095 22.4921 26.7545 19.3969 26.7545Z" fill="#3F403F"/>
<path d="M28.545 14.0983C29.6467 14.0983 30.5397 13.2052 30.5397 12.1036C30.5397 11.0019 29.6467 10.1089 28.545 10.1089C27.4434 10.1089 26.5503 11.0019 26.5503 12.1036C26.5503 13.2052 27.4434 14.0983 28.545 14.0983Z" fill="#3F403F"/>
<path d="M33.7037 6.94511C31.9153 5.08796 29.3704 4.125 26.4815 4.125H12.3122C6.32804 4.125 2.33862 8.11442 2.33862 14.0985V28.1991C2.33862 31.1567 3.30159 33.7017 5.22751 35.5589C7.08465 37.3472 9.56085 38.2414 12.381 38.2414H26.4127C29.3704 38.2414 31.8466 37.2784 33.6349 35.5589C35.4921 33.7705 36.455 31.2255 36.455 28.2679V14.0985C36.455 11.2097 35.4921 8.73347 33.7037 6.94511ZM33.4286 28.2679C33.4286 30.4001 32.672 32.1197 31.4339 33.289C30.1958 34.4583 28.4762 35.0774 26.4127 35.0774H12.381C10.3175 35.0774 8.59788 34.4583 7.35979 33.289C6.12169 32.0509 5.50264 30.3314 5.50264 28.1991V14.0985C5.50264 12.0351 6.12169 10.3155 7.35979 9.07738C8.5291 7.90807 10.3175 7.28902 12.381 7.28902H26.5503C28.6138 7.28902 30.3333 7.90807 31.5714 9.14616C32.7407 10.3843 33.4286 12.1038 33.4286 14.0985V28.2679Z" fill="#3F403F"/>
</svg>
