<svg width="40" height="41" viewBox="0 0 40 41" fill="none" xmlns="http://www.w3.org/2000/svg">
<path fill-rule="evenodd" clip-rule="evenodd" d="M38.3333 20.8184C38.3333 25.9379 37.8467 29.085 36.7079 31.0367C35.5579 33.1193 34.2116 33.7745 31.4638 33.9669C29.5247 34.0801 24.6577 34.1564 20.0044 34.1564C15.3407 34.1564 10.4712 34.0802 8.5143 33.9656C5.79151 33.7744 4.44498 33.1204 3.29648 31.0604C2.15462 29.0698 1.66663 25.9098 1.66663 20.8371C1.66663 15.7354 2.15227 12.5913 3.28651 10.5941C4.45014 8.50719 5.81849 7.84518 8.5183 7.68723C10.3857 7.56059 14.9943 7.48975 20.0044 7.48975C25.0037 7.48975 29.6103 7.56062 31.4638 7.68625C34.1788 7.8448 35.5468 8.50535 36.7003 10.5865C37.8513 12.5906 38.3333 15.7194 38.3333 20.8184ZM33.8055 12.2391C33.2672 11.2648 32.9522 11.1122 31.254 11.0129C29.4877 10.8933 24.9245 10.8231 20.0044 10.8231C15.0737 10.8231 10.5084 10.8933 8.72845 11.0139C7.04736 11.1123 6.72787 11.2669 6.19145 12.2288C5.41252 13.6004 4.99996 16.2714 4.99996 20.8184C4.99996 25.3681 5.41473 28.0539 6.19785 29.4194C6.72604 30.3667 7.04331 30.5208 8.72834 30.6393C10.5812 30.7476 15.4035 30.8231 20.0044 30.8231C24.595 30.8231 29.4148 30.7476 31.2501 30.6405C32.9562 30.5209 33.269 30.3687 33.8092 29.3914C34.587 28.0577 35 25.3869 35 20.8371C35 16.2526 34.5892 13.5964 33.8055 12.2391ZM16.6666 15.8231L25 20.8231L16.6666 25.8231V15.8231Z" fill="#3F403F"/>
</svg>
