<svg width="38" height="53" viewBox="0 0 38 53" fill="none" xmlns="http://www.w3.org/2000/svg">
<g filter="url(#filter0_d_1_18)">
<path d="M19 47L31.9904 24.5H6.00962L19 47Z" fill="#965CA4"/>
<g clip-path="url(#clip0_1_18)">
<rect x="4" y="2" width="30" height="30" rx="15" fill="#965CA4"/>
<g filter="url(#filter1_d_1_18)">
<path d="M25.6177 16.5996C25.9663 16.6937 26.2845 16.8376 26.5723 17.0312C26.86 17.2249 27.1118 17.4601 27.3276 17.7368C27.5435 18.0135 27.7095 18.3151 27.8257 18.6416C27.9419 18.9681 28 19.3167 28 19.6875C28 20.1302 27.917 20.5425 27.751 20.9243C27.585 21.3062 27.3581 21.6437 27.0703 21.937C26.7826 22.2303 26.4422 22.46 26.0493 22.626C25.6564 22.792 25.2441 22.875 24.8125 22.875H21.625L22.6875 21.8125H24.8125C25.1058 21.8125 25.3797 21.7572 25.6343 21.6465C25.8888 21.5358 26.1157 21.3836 26.3149 21.1899C26.5142 20.9963 26.6663 20.7721 26.7715 20.5176C26.8766 20.263 26.932 19.9863 26.9375 19.6875C26.9375 19.3831 26.8822 19.1037 26.7715 18.8491C26.6608 18.5946 26.5031 18.3704 26.2983 18.1768C26.0936 17.9831 25.8639 17.8337 25.6094 17.7285C25.3548 17.6234 25.0726 17.568 24.7627 17.5625C24.6963 17.1087 24.5552 16.6882 24.3394 16.3008C24.1235 15.9134 23.8524 15.5758 23.5259 15.2881C23.1994 15.0003 22.8286 14.7762 22.4136 14.6157C21.9985 14.4552 21.5586 14.375 21.0938 14.375C20.6676 14.375 20.2637 14.4442 19.8818 14.5825C19.5 14.7209 19.1486 14.9118 18.8276 15.1553C18.5067 15.3988 18.2355 15.6921 18.0142 16.0352C17.7928 16.3783 17.624 16.7518 17.5078 17.1558C17.2643 16.9455 16.9959 16.785 16.7026 16.6743C16.4093 16.5636 16.1022 16.5055 15.7812 16.5C15.416 16.5 15.0729 16.5692 14.752 16.7075C14.431 16.8459 14.1488 17.034 13.9053 17.272C13.6618 17.5099 13.4709 17.7922 13.3325 18.1187C13.1942 18.4451 13.125 18.791 13.125 19.1562C13.125 19.5215 13.1942 19.8646 13.3325 20.1855C13.4709 20.5065 13.659 20.7887 13.897 21.0322C14.1349 21.2757 14.4172 21.4666 14.7437 21.605C15.0701 21.7433 15.416 21.8125 15.7812 21.8125H17.9062L17.375 22.875H15.7812C15.2666 22.875 14.7852 22.7782 14.3369 22.5845C13.8887 22.3908 13.4958 22.1252 13.1582 21.7876C12.8206 21.45 12.555 21.0571 12.3613 20.6089C12.1676 20.1606 12.068 19.6764 12.0625 19.1562C12.0625 18.7412 12.1289 18.3428 12.2617 17.9609C11.8688 17.6621 11.5617 17.2913 11.3403 16.8486C11.119 16.4059 11.0055 15.9355 11 15.4375C11 15.0003 11.083 14.5881 11.249 14.2007C11.415 13.8133 11.6419 13.4757 11.9297 13.188C12.2174 12.9002 12.555 12.6706 12.9424 12.499C13.3298 12.3275 13.7448 12.2445 14.1875 12.25H14.3618C14.4172 12.25 14.478 12.2555 14.5444 12.2666C14.6938 11.9346 14.8848 11.6385 15.1172 11.3784C15.3496 11.1183 15.6125 10.8942 15.9058 10.7061C16.1991 10.5179 16.5145 10.374 16.8521 10.2744C17.1896 10.1748 17.541 10.125 17.9062 10.125C18.3711 10.125 18.811 10.2052 19.2261 10.3657C19.6411 10.5262 20.0146 10.7503 20.3467 11.0381C20.6787 11.3258 20.9526 11.6662 21.1685 12.0591C21.3843 12.452 21.5254 12.8781 21.5918 13.3374C22.0566 13.3872 22.4993 13.5007 22.9199 13.6777C23.3405 13.8548 23.7251 14.0872 24.0737 14.375C24.4224 14.6628 24.7323 14.9948 25.0034 15.3711C25.2746 15.7474 25.4793 16.1569 25.6177 16.5996ZM17.0015 15.645C17.1896 15.3296 17.4082 15.0418 17.6572 14.7817C17.9062 14.5216 18.1829 14.292 18.4873 14.0928C18.7917 13.8936 19.1126 13.7303 19.4502 13.603C19.7878 13.4757 20.1419 13.39 20.5127 13.3457C20.4518 13.0358 20.3411 12.748 20.1807 12.4824C20.0202 12.2168 19.8265 11.9899 19.5996 11.8018C19.3727 11.6136 19.1126 11.4642 18.8193 11.3535C18.526 11.2428 18.2217 11.1875 17.9062 11.1875C17.5632 11.1875 17.2394 11.2484 16.9351 11.3701C16.6307 11.4919 16.3595 11.6634 16.1216 11.8848C15.8836 12.1061 15.6899 12.3634 15.5405 12.6567C15.3911 12.95 15.3026 13.271 15.2749 13.6196C15.1089 13.5256 14.9346 13.4508 14.752 13.3955C14.5693 13.3402 14.3812 13.3125 14.1875 13.3125C13.8942 13.3125 13.6203 13.3678 13.3657 13.4785C13.1112 13.5892 12.8843 13.7414 12.6851 13.9351C12.4858 14.1287 12.3337 14.3529 12.2285 14.6074C12.1234 14.862 12.068 15.1387 12.0625 15.4375C12.0625 15.7363 12.1206 16.0213 12.2368 16.2925C12.353 16.5636 12.5273 16.7988 12.7598 16.998C13.1084 16.5055 13.5483 16.1237 14.0796 15.8525C14.6108 15.5814 15.1781 15.443 15.7812 15.4375C16.1908 15.4375 16.5975 15.5067 17.0015 15.645ZM17.9062 25L20.0312 20.75H18.1719L19.7656 17.5625H21.625L20.5625 19.6875H23.2188L17.9062 25Z" fill="white"/>
</g>
</g>
</g>
<defs>
<filter id="filter0_d_1_18" x="0" y="0" width="38" height="53" filterUnits="userSpaceOnUse" color-interpolation-filters="sRGB">
<feFlood flood-opacity="0" result="BackgroundImageFix"/>
<feColorMatrix in="SourceAlpha" type="matrix" values="0 0 0 0 0 0 0 0 0 0 0 0 0 0 0 0 0 0 127 0" result="hardAlpha"/>
<feOffset dy="2"/>
<feGaussianBlur stdDeviation="2"/>
<feComposite in2="hardAlpha" operator="out"/>
<feColorMatrix type="matrix" values="0 0 0 0 0 0 0 0 0 0 0 0 0 0 0 0 0 0 0.25 0"/>
<feBlend mode="normal" in2="BackgroundImageFix" result="effect1_dropShadow_1_18"/>
<feBlend mode="normal" in="SourceGraphic" in2="effect1_dropShadow_1_18" result="shape"/>
</filter>
<filter id="filter1_d_1_18" x="5" y="4.125" width="37" height="34.875" filterUnits="userSpaceOnUse" color-interpolation-filters="sRGB">
<feFlood flood-opacity="0" result="BackgroundImageFix"/>
<feColorMatrix in="SourceAlpha" type="matrix" values="0 0 0 0 0 0 0 0 0 0 0 0 0 0 0 0 0 0 127 0" result="hardAlpha"/>
<feOffset dx="4" dy="4"/>
<feGaussianBlur stdDeviation="5"/>
<feComposite in2="hardAlpha" operator="out"/>
<feColorMatrix type="matrix" values="0 0 0 0 0 0 0 0 0 0 0 0 0 0 0 0 0 0 1 0"/>
<feBlend mode="normal" in2="BackgroundImageFix" result="effect1_dropShadow_1_18"/>
<feBlend mode="normal" in="SourceGraphic" in2="effect1_dropShadow_1_18" result="shape"/>
</filter>
<clipPath id="clip0_1_18">
<rect x="4" y="2" width="30" height="30" rx="15" fill="white"/>
</clipPath>
</defs>
</svg>
