<svg width="38" height="53" viewBox="0 0 38 53" fill="none" xmlns="http://www.w3.org/2000/svg">
<g filter="url(#filter0_d_1_12)">
<path d="M19 47L31.9904 24.5H6.00962L19 47Z" fill="#31B7BC"/>
<g clip-path="url(#clip0_1_12)">
<rect x="4" y="2" width="30" height="30" rx="15" fill="#31B7BC"/>
<g filter="url(#filter1_d_1_12)">
<path d="M16.875 22.6375C17.4218 22.6375 17.8247 22.5059 18.0837 22.2427C18.3426 21.9796 18.8163 21.848 19.5047 21.848C20.1705 21.848 20.6434 21.9796 20.9234 22.2427C21.2034 22.5059 21.6105 22.6375 22.1447 22.6375C22.6916 22.6375 23.0945 22.5059 23.3534 22.2427C23.6124 21.9796 24.0845 21.848 24.7697 21.848C25.2729 21.848 25.6316 21.9219 25.8458 22.0698C26.0605 22.2183 26.3103 22.3517 26.595 22.4701C26.7008 22.5143 26.7947 22.5827 26.8768 22.6754C26.9589 22.7675 27 22.8761 27 23.0014C27 23.1135 26.9589 23.2014 26.8768 23.2651C26.7947 23.3293 26.7042 23.3451 26.6053 23.3125C26.2553 23.2072 25.965 23.0683 25.7345 22.8956C25.5039 22.723 25.18 22.6367 24.7626 22.6367C24.23 22.6367 23.8284 22.7683 23.5579 23.0314C23.2879 23.2946 22.8168 23.4261 22.1447 23.4261C21.4726 23.4261 20.9982 23.2946 20.7213 23.0314C20.4445 22.7683 20.0376 22.6367 19.5008 22.6367C18.9497 22.6367 18.5455 22.7683 18.2882 23.0314C18.0313 23.2946 17.5603 23.4261 16.875 23.4261C16.1897 23.4261 15.7182 23.2946 15.4603 23.0314C15.2024 22.7683 14.8008 22.6367 14.2555 22.6367C13.8397 22.6367 13.5166 22.723 13.2861 22.8956C13.055 23.0683 12.7645 23.2072 12.4145 23.3125C12.3155 23.3451 12.2216 23.3261 12.1326 23.2556C12.0442 23.1851 12 23.0954 12 22.9864C12 22.8654 12.0403 22.7601 12.1208 22.6706C12.2013 22.5811 12.2947 22.5143 12.4011 22.4701C12.6853 22.3517 12.9379 22.2183 13.1589 22.0698C13.38 21.9214 13.7437 21.8472 14.25 21.8472C14.9353 21.8472 15.4074 21.9788 15.6663 22.2419C15.9253 22.5051 16.3282 22.6375 16.875 22.6375ZM16.8774 20.648C16.2168 20.648 15.7474 20.5164 15.4689 20.2533C15.1905 19.9901 14.7842 19.8585 14.25 19.8585C13.85 19.8585 13.5282 19.9448 13.2845 20.1175C13.0413 20.2901 12.7447 20.429 12.3947 20.5343C12.2958 20.5664 12.2053 20.5472 12.1232 20.4767C12.0411 20.4061 12 20.3167 12 20.2083C12 20.0867 12.0411 19.9814 12.1232 19.8925C12.2053 19.803 12.2992 19.7359 12.405 19.6911C12.6892 19.5727 12.9413 19.4396 13.1613 19.2917C13.3808 19.1433 13.7421 19.069 14.2453 19.069C14.4763 19.069 14.6921 19.0977 14.8926 19.1551C15.0926 19.2119 15.3621 19.3383 15.7011 19.534L14.5563 15.2219L13.5805 16.4219C13.5095 16.5114 13.4245 16.5651 13.3255 16.583C13.2261 16.6009 13.1326 16.5738 13.0453 16.5017C12.9505 16.4301 12.8982 16.3404 12.8882 16.2325C12.8776 16.1246 12.9095 16.0256 12.9837 15.9356L17.4079 10.4685C17.5811 10.2559 17.8016 10.1143 18.0695 10.0438C18.3379 9.97378 18.5997 9.98772 18.855 10.0856L25.4289 12.5954C25.5268 12.6354 25.5984 12.7056 25.6437 12.8061C25.6895 12.9061 25.6932 13.0035 25.6547 13.0983C25.6163 13.1993 25.5458 13.2722 25.4432 13.3169C25.3405 13.3622 25.2395 13.3656 25.14 13.3272L23.7158 12.769L25.4211 19.1654C25.6421 19.1848 25.8442 19.2546 26.0274 19.3746C26.2116 19.4956 26.4074 19.6009 26.6147 19.6904C26.7205 19.7351 26.8113 19.8043 26.8871 19.898C26.9624 19.9917 27 20.0922 27 20.1996C27 20.3069 26.9589 20.3948 26.8768 20.4633C26.7947 20.5322 26.7042 20.5506 26.6053 20.5185C26.2653 20.4133 25.9774 20.2767 25.7416 20.1088C25.5058 19.9419 25.18 19.8585 24.7642 19.8585C24.2195 19.8585 23.8179 19.9901 23.5595 20.2533C23.3011 20.5164 22.8276 20.648 22.1392 20.648C21.4739 20.648 21.0013 20.5164 20.7213 20.2533C20.4413 19.9901 20.0342 19.8585 19.5 19.8585C18.9532 19.8585 18.5503 19.9901 18.2913 20.2533C18.0324 20.5164 17.5611 20.648 16.8774 20.648ZM16.875 19.8585C17.3203 19.8585 17.6616 19.7638 17.8989 19.5743C18.1363 19.3848 18.4687 19.2375 18.8961 19.1322L18.1429 16.3833C18.1166 16.2964 18.1271 16.2148 18.1745 16.1385C18.2218 16.0627 18.2882 16.0117 18.3734 15.9854L20.8192 15.3435C20.9024 15.3172 20.9803 15.3251 21.0529 15.3672C21.1261 15.4098 21.1758 15.4738 21.2021 15.559L22.3303 19.8388C22.7787 19.8019 23.1213 19.6727 23.3582 19.4511C23.595 19.229 23.9971 19.1033 24.5645 19.0738L22.7913 12.4185L18.2416 10.7006L15.1729 14.4569L16.6066 19.8333C16.6618 19.8469 16.7118 19.8548 16.7566 19.8569L16.875 19.8585Z" fill="white"/>
</g>
</g>
</g>
<defs>
<filter id="filter0_d_1_12" x="0" y="0" width="38" height="53" filterUnits="userSpaceOnUse" color-interpolation-filters="sRGB">
<feFlood flood-opacity="0" result="BackgroundImageFix"/>
<feColorMatrix in="SourceAlpha" type="matrix" values="0 0 0 0 0 0 0 0 0 0 0 0 0 0 0 0 0 0 127 0" result="hardAlpha"/>
<feOffset dy="2"/>
<feGaussianBlur stdDeviation="2"/>
<feComposite in2="hardAlpha" operator="out"/>
<feColorMatrix type="matrix" values="0 0 0 0 0 0 0 0 0 0 0 0 0 0 0 0 0 0 0.25 0"/>
<feBlend mode="normal" in2="BackgroundImageFix" result="effect1_dropShadow_1_12"/>
<feBlend mode="normal" in="SourceGraphic" in2="effect1_dropShadow_1_12" result="shape"/>
</filter>
<filter id="filter1_d_1_12" x="6" y="4" width="35" height="33.4261" filterUnits="userSpaceOnUse" color-interpolation-filters="sRGB">
<feFlood flood-opacity="0" result="BackgroundImageFix"/>
<feColorMatrix in="SourceAlpha" type="matrix" values="0 0 0 0 0 0 0 0 0 0 0 0 0 0 0 0 0 0 127 0" result="hardAlpha"/>
<feOffset dx="4" dy="4"/>
<feGaussianBlur stdDeviation="5"/>
<feComposite in2="hardAlpha" operator="out"/>
<feColorMatrix type="matrix" values="0 0 0 0 0 0 0 0 0 0 0 0 0 0 0 0 0 0 0.7 0"/>
<feBlend mode="normal" in2="BackgroundImageFix" result="effect1_dropShadow_1_12"/>
<feBlend mode="normal" in="SourceGraphic" in2="effect1_dropShadow_1_12" result="shape"/>
</filter>
<clipPath id="clip0_1_12">
<rect x="4" y="2" width="30" height="30" rx="15" fill="white"/>
</clipPath>
</defs>
</svg>
