<svg width="38" height="53" viewBox="0 0 38 53" fill="none" xmlns="http://www.w3.org/2000/svg">
<g filter="url(#filter0_d_1_27)">
<path d="M19 47L31.9904 24.5H6.00962L19 47Z" fill="#475C59"/>
<rect x="4" y="2" width="30" height="30" rx="15" fill="#475C59"/>
<path d="M11.85 17.22C11.85 17.3373 11.894 17.4327 11.9747 17.5133C12.0553 17.594 12.158 17.6307 12.268 17.6307H14.4533C14.556 17.6307 14.6513 17.6013 14.732 17.5353C14.8127 17.4693 14.8567 17.3887 14.8787 17.286L15.5387 13.4213L16.7267 23.0867C16.7413 23.1893 16.7927 23.2773 16.866 23.3507C16.9393 23.4167 17.0273 23.4533 17.13 23.4533C17.24 23.4533 17.3353 23.4167 17.4087 23.3507C17.482 23.2847 17.5333 23.1967 17.5553 23.0867L18.472 15.9953L19.2347 18.0487C19.264 18.1293 19.308 18.1953 19.3813 18.2467C19.4547 18.298 19.528 18.32 19.616 18.32H19.6527C19.7407 18.3127 19.8213 18.2833 19.8873 18.2247C19.9607 18.166 20.0047 18.0927 20.0267 17.9973L21.1487 12.9667L21.6693 22.632C21.6767 22.7347 21.7133 22.83 21.7793 22.9033C21.8453 22.9767 21.9333 23.0207 22.0433 23.028C22.146 23.0353 22.2413 23.0133 22.322 22.9547C22.4021 22.895 22.4591 22.8095 22.4833 22.7127L23.6933 17.6233H25.7247C25.842 17.6233 25.9373 17.5867 26.018 17.506C26.0987 17.4253 26.1427 17.33 26.1427 17.2127C26.1427 17.0953 26.0987 17 26.018 16.9193C25.9799 16.88 25.9343 16.8488 25.8839 16.8274C25.8335 16.806 25.7794 16.7948 25.7247 16.7947H23.356C23.2607 16.7947 23.1727 16.824 23.0993 16.8827C23.026 16.9413 22.9747 17.0147 22.9527 17.11L22.344 19.706L21.816 9.90866C21.8114 9.80691 21.7696 9.71038 21.6987 9.63733C21.6649 9.60091 21.6241 9.57173 21.5787 9.55156C21.5333 9.53139 21.4843 9.52065 21.4347 9.51999C21.332 9.51266 21.2367 9.53466 21.1487 9.60066C21.0607 9.66666 21.0093 9.74733 20.9873 9.84999L19.5207 16.428L18.67 14.1107C18.6407 14.0227 18.582 13.9567 18.494 13.9053C18.406 13.854 18.318 13.832 18.23 13.8467C18.1347 13.854 18.054 13.898 17.988 13.964C17.922 14.03 17.878 14.118 17.8633 14.2133L17.1447 19.7207L16.0227 10.51C16.0049 10.4117 15.9561 10.3217 15.8833 10.2533C15.8105 10.1875 15.7173 10.1487 15.6193 10.1433C15.5185 10.1351 15.4185 10.1667 15.3407 10.2313C15.26 10.2973 15.2087 10.378 15.194 10.488L14.1087 16.802H12.268C12.1507 16.802 12.0553 16.846 11.9747 16.9267C11.894 17.0073 11.85 17.1027 11.85 17.22Z" fill="white"/>
</g>
<defs>
<filter id="filter0_d_1_27" x="0" y="0" width="38" height="53" filterUnits="userSpaceOnUse" color-interpolation-filters="sRGB">
<feFlood flood-opacity="0" result="BackgroundImageFix"/>
<feColorMatrix in="SourceAlpha" type="matrix" values="0 0 0 0 0 0 0 0 0 0 0 0 0 0 0 0 0 0 127 0" result="hardAlpha"/>
<feOffset dy="2"/>
<feGaussianBlur stdDeviation="2"/>
<feComposite in2="hardAlpha" operator="out"/>
<feColorMatrix type="matrix" values="0 0 0 0 0 0 0 0 0 0 0 0 0 0 0 0 0 0 0.25 0"/>
<feBlend mode="normal" in2="BackgroundImageFix" result="effect1_dropShadow_1_27"/>
<feBlend mode="normal" in="SourceGraphic" in2="effect1_dropShadow_1_27" result="shape"/>
</filter>
</defs>
</svg>
