<svg width="38" height="53" viewBox="0 0 38 53" fill="none" xmlns="http://www.w3.org/2000/svg">
<g filter="url(#filter0_d_1_8)">
<path d="M19 47L31.9904 24.5H6.00962L19 47Z" fill="#E64347"/>
<g clip-path="url(#clip0_1_8)">
<rect x="4" y="2" width="30" height="30" rx="15" fill="#E64347"/>
<g filter="url(#filter1_d_1_8)">
<path d="M15.8734 11.9869C16.9013 12.6146 17.6651 13.5224 18.0831 14.6309C18.1869 14.907 18.2855 15.1845 18.3854 15.4619C18.417 15.5476 18.4485 15.6345 18.4801 15.7202C18.5918 16.0194 19.069 15.9017 18.9769 15.5872C18.4498 13.7692 17.9569 11.9115 16.2651 10.7812C16.0075 10.6086 15.7012 10.4654 15.3989 10.624C15.153 10.7544 15.0334 11.0306 15.1267 11.2952C15.2464 11.6302 15.5829 11.8092 15.8734 11.9869ZM20.2086 13.9673C20.0207 14.2256 19.7722 14.5197 19.7012 14.8367C19.6763 14.9467 19.5593 15.1679 19.721 15.2356C19.9615 15.3354 19.9865 15.1282 20.135 14.9991C20.3072 14.8482 20.4452 14.6513 20.5925 14.4787C21.2366 13.727 22.1344 13.369 23.0598 13.0609C23.1952 13.0161 23.3451 12.9778 23.4831 12.9535C23.6303 12.9279 23.7749 12.8704 23.9234 12.8601C24.0615 12.8499 24.2074 12.832 24.3415 12.8C24.5321 12.7553 24.7319 12.621 24.7897 12.4331C24.8528 12.2336 24.8199 12.0086 24.628 11.891C24.5058 11.8143 24.3612 11.7823 24.2153 11.7734C24.1114 11.767 24.0049 11.7734 23.905 11.7862C23.6342 11.8181 23.328 11.8565 23.0664 11.9396C21.9306 12.2989 20.9027 13.0161 20.2086 13.9673ZM24.8633 15.2062C24.4742 15.0733 24.0693 14.9646 23.6566 14.9352C23.1242 14.8981 22.584 14.9249 22.066 15.0592C21.8084 15.1257 21.556 15.2177 21.3194 15.3366C21.1327 15.43 20.7962 15.5578 20.745 15.7764L20.7423 15.7892C20.7266 15.8864 20.8146 15.8928 20.8974 15.9196C21.0959 15.9836 21.3615 15.8468 21.56 15.8071C21.8189 15.7534 22.0818 15.7215 22.346 15.7074C22.8442 15.6806 23.3805 15.7049 23.8722 15.848C24.1272 15.9222 24.373 16.0283 24.5991 16.1651C24.8173 16.2981 25.0211 16.4848 25.2853 16.5167C25.5482 16.5487 25.8847 16.3812 25.8939 16.0922C25.8952 16.0667 25.8939 16.0424 25.8913 16.0181C25.8479 15.568 25.2301 15.3315 24.8633 15.2062ZM14.5865 15.9606C15.4698 15.5796 16.5306 15.5975 17.3496 16.1204C17.577 16.2661 17.8057 15.9478 17.6309 15.7649C16.996 15.1027 15.7511 14.8316 14.8402 14.9761C14.338 15.0554 13.832 15.1551 13.3811 15.3954C13.0498 15.5706 12.7304 15.8084 12.4938 16.0961C12.2743 16.3633 12.131 16.8095 12.5582 16.9604C12.8776 17.0742 13.1602 16.9246 13.4113 16.7443C13.8083 16.4605 14.1264 16.1587 14.5865 15.9606ZM14.2789 13.5518C15.2266 13.7474 16.2322 14.1949 16.9395 14.847C17.2116 15.0963 17.5546 14.7319 17.3378 14.4596C16.7291 13.7014 15.6539 13.1619 14.7705 12.7681C14.3854 12.5955 13.9647 12.4881 13.5441 12.4357C13.3206 12.4075 13.0945 12.396 12.8684 12.4126C12.6318 12.4293 12.4609 12.483 12.2545 12.5929C12.1139 12.6671 12.0429 12.7757 12.0087 12.9292C11.9469 13.2168 12.2243 13.4124 12.4846 13.438C13.0893 13.4968 13.6782 13.4278 14.2789 13.5518ZM19.2293 13.9175C19.3253 13.8114 19.3713 13.6707 19.4291 13.5454C19.8853 12.5622 20.5241 11.5663 21.602 11.1495C22.1291 10.9449 23.6027 10.8426 23.5514 10.0371C23.5383 9.84408 23.4095 9.73029 23.2399 9.6702C23.0532 9.60244 22.8166 9.60371 22.6457 9.63696C22.3526 9.69321 22.0779 9.81595 21.8097 9.93613C20.8238 10.3772 19.9615 11.1776 19.4265 12.093C19.1281 12.6031 18.9599 13.2015 18.9388 13.7883C18.9322 13.9661 19.1084 14.0517 19.2293 13.9175ZM26.6261 13.4892C26.3185 13.4073 25.9149 13.4431 25.6941 13.4444C25.0841 13.447 24.4729 13.5071 23.8735 13.6132C23.4568 13.6873 23.0414 13.7858 22.6431 13.929C22.4683 13.9916 22.2882 14.0594 22.1252 14.1489C21.9832 14.2282 21.8018 14.3279 21.7637 14.5005C21.7282 14.6565 22.4972 14.4711 22.5603 14.4557C22.9809 14.3547 23.3779 14.2576 23.8143 14.2192C24.4939 14.1566 25.1788 14.1745 25.8597 14.2243C26.2514 14.2524 26.9534 14.3739 26.9994 13.819C27.0138 13.6439 26.768 13.5275 26.6261 13.4892ZM17.7032 10.6432C17.8517 10.8452 17.97 11.0638 18.0673 11.2927C18.1527 11.4959 18.1896 11.7555 18.3223 11.9345C18.4761 12.139 18.5957 11.8936 18.5918 11.7299C18.5826 11.3387 18.5918 10.8055 18.4958 10.3222C18.4196 9.94125 18.2803 9.59093 18.0134 9.36591C17.5665 8.98874 17.0919 9.36335 17.2378 9.87732C17.3193 10.1701 17.5257 10.4015 17.7032 10.6432ZM19.8511 10.2021C19.9576 10.0269 20.0496 9.78654 20.043 9.56408C20.0378 9.40299 19.9799 9.25084 19.8366 9.14344C19.6 8.96573 19.1952 9.05267 19.0348 9.28025C18.8218 9.58326 19.0111 10.1087 19.1781 10.3951C19.4699 10.895 19.646 10.5409 19.8511 10.2021ZM16.2664 10.2775C16.3782 10.3184 16.5517 10.3964 16.6739 10.3759C16.8211 10.3517 16.8422 10.2443 16.8238 10.1138C16.8133 10.0333 16.7804 9.95275 16.7646 9.87093C16.7607 9.84408 16.7541 9.81723 16.7475 9.7891C16.6542 9.42983 16.3782 8.95934 15.9536 9.00281C15.7262 9.02582 15.5027 9.15239 15.437 9.37997C15.3752 9.59988 15.4685 9.8249 15.6499 9.9617C15.8392 10.1062 16.043 10.197 16.2664 10.2775ZM24.3848 11.1213C24.536 11.1367 24.6543 11.1213 24.8081 11.1073C25.0408 11.0868 25.2984 11.152 25.4864 10.9884C25.6665 10.8324 25.7046 10.5716 25.606 10.3632C25.5482 10.2391 25.3904 10.1573 25.2629 10.119C25.1144 10.0729 24.958 10.1292 24.8239 10.1867C24.4966 10.3261 23.5317 11.0382 24.3848 11.1213ZM13.7478 11.5854C13.9095 11.634 14.2763 11.6762 14.3104 11.4576C14.3302 11.3361 14.2749 11.1814 14.1895 11.0254C14.062 10.794 13.8635 10.5652 13.7334 10.4539C13.6532 10.3849 13.5428 10.3747 13.4442 10.3414C13.0498 10.2149 12.6896 10.4808 12.6975 10.8605C12.7002 11.0165 12.7672 11.129 12.8842 11.2338C13.1234 11.4448 13.4481 11.4947 13.7478 11.5854Z" fill="white"/>
</g>
<g filter="url(#filter2_d_1_8)">
<mask id="path-4-inside-1_1_8" fill="white">
<path d="M25.7396 22.4654C25.5693 22.2618 25.3245 22.0916 25.1204 21.9297C24.4335 21.3893 23.7981 20.7417 23.2545 20.0894C22.7448 19.4775 22.327 18.8252 21.9173 18.1586C21.8376 18.0288 21.7673 17.8955 21.6902 17.7646C21.5523 17.5301 21.3981 17.2718 21.1561 17.1075C20.9236 16.9492 20.5977 16.9647 20.4017 17.1611C20.3124 17.2492 20.2205 17.3575 20.0731 17.348C19.9068 17.3361 19.8284 17.1873 19.7054 17.1075C19.5566 17.0135 19.366 16.9754 19.197 17.048C19.128 17.0777 19.0699 17.1206 19.0158 17.1682C18.932 17.2432 18.8157 17.3182 18.6886 17.3051C18.5642 17.292 18.4885 17.198 18.3884 17.1432C18.2248 17.0516 18.0369 17.0385 17.876 17.1385C17.7719 17.2039 17.6921 17.2968 17.6272 17.3932C17.465 17.6325 17.3866 17.9062 17.2311 18.1491C16.2887 19.6251 15.0367 20.9226 13.5832 22.0285C13.3601 22.1987 13.0924 22.3999 13.0261 22.6665C12.8342 23.4272 13.7414 23.8402 14.3796 24.0866C15.2598 24.4283 16.1927 24.6497 17.1364 24.808C17.9058 24.9366 18.6818 24.9949 19.4647 24.9997C20.0042 25.0032 20.5436 24.9782 21.0804 24.9259C21.8011 24.8556 22.5082 24.7211 23.2126 24.5664C24.1131 24.3688 26.8483 23.7819 25.7396 22.4654"/>
</mask>
<path d="M25.1204 21.9297L25.5553 21.3812L25.5532 21.3796L25.1204 21.9297ZM23.2545 20.0894L22.7167 20.5374L22.7167 20.5375L23.2545 20.0894ZM21.9173 18.1586L22.5137 17.7921L22.5137 17.792L21.9173 18.1586ZM21.6902 17.7646L21.0868 18.1194L21.0869 18.1197L21.6902 17.7646ZM21.1561 17.1075L20.7622 17.6861L20.763 17.6867L21.1561 17.1075ZM20.4017 17.1611L20.8934 17.6593L20.8971 17.6556L20.4017 17.1611ZM20.0731 17.348L20.0231 18.0462L20.028 18.0465L20.0731 17.348ZM19.7054 17.1075L20.0861 16.5201L20.0795 16.5158L19.7054 17.1075ZM19.197 17.048L18.9207 16.4048L18.9196 16.4053L19.197 17.048ZM19.0158 17.1682L18.5532 16.6428L18.5491 16.6465L19.0158 17.1682ZM18.6886 17.3051L18.6153 18.0013L18.6169 18.0014L18.6886 17.3051ZM18.3884 17.1432L18.0463 17.7539L18.0524 17.7573L18.3884 17.1432ZM17.876 17.1385L17.5065 16.5439L17.5034 16.5459L17.876 17.1385ZM17.6272 17.3932L18.2066 17.7861L18.2079 17.7841L17.6272 17.3932ZM17.2311 18.1491L16.6416 17.7716L16.6411 17.7724L17.2311 18.1491ZM13.5832 22.0285L13.1593 21.4714L13.1586 21.472L13.5832 22.0285ZM13.0261 22.6665L13.7049 22.8378L13.7055 22.8353L13.0261 22.6665ZM14.3796 24.0866L14.6329 23.4341L14.6317 23.4336L14.3796 24.0866ZM17.1364 24.808L17.0206 25.4984L17.0211 25.4984L17.1364 24.808ZM19.4647 24.9997L19.4693 24.2997L19.4689 24.2997L19.4647 24.9997ZM21.0804 24.9259L21.0125 24.2292L21.0124 24.2292L21.0804 24.9259ZM23.2126 24.5664L23.0626 23.8826L23.0624 23.8827L23.2126 24.5664ZM26.2764 22.0161C26.0455 21.7402 25.7054 21.5002 25.5553 21.3812L24.6855 22.4782C24.9437 22.6829 25.093 22.7834 25.2028 22.9146L26.2764 22.0161ZM25.5532 21.3796C24.9127 20.8756 24.3117 20.2646 23.7923 19.6413L22.7167 20.5375C23.2844 21.2188 23.9543 21.9029 24.6875 22.4798L25.5532 21.3796ZM23.7924 19.6413C23.3168 19.0706 22.9209 18.4547 22.5137 17.7921L21.321 18.5251C21.7331 19.1957 22.1728 19.8845 22.7167 20.5374L23.7924 19.6413ZM22.5137 17.792C22.43 17.6559 22.4008 17.5919 22.2935 17.4095L21.0869 18.1197C21.1337 18.1991 21.2451 18.4018 21.321 18.5252L22.5137 17.792ZM22.2936 17.4097C22.1682 17.1965 21.9421 16.795 21.5492 16.5283L20.763 17.6867C20.8542 17.7486 20.9364 17.8637 21.0868 18.1194L22.2936 17.4097ZM21.5501 16.5289C21.0705 16.2024 20.3656 16.2063 19.9062 16.6665L20.8971 17.6556C20.8621 17.6907 20.8262 17.6988 20.8099 17.6998C20.7949 17.7008 20.7791 17.6977 20.7622 17.6861L21.5501 16.5289ZM19.9099 16.6629C19.8962 16.6765 19.8807 16.6921 19.8723 16.7005C19.862 16.7109 19.8555 16.7173 19.8502 16.7223C19.839 16.733 19.8429 16.7281 19.857 16.7182C19.8724 16.7074 19.9051 16.6869 19.9538 16.6707C20.0051 16.6537 20.0617 16.6458 20.1183 16.6494L20.028 18.0465C20.3035 18.0643 20.5184 17.9644 20.6614 17.864C20.7765 17.7832 20.8829 17.6696 20.8934 17.6592L19.9099 16.6629ZM20.1231 16.6497C20.1863 16.6543 20.2419 16.6729 20.284 16.6946C20.321 16.7137 20.3395 16.7312 20.3332 16.7257C20.3303 16.7232 20.3251 16.7184 20.3135 16.7075C20.3055 16.6999 20.2848 16.68 20.2681 16.6645C20.232 16.6309 20.1687 16.5736 20.0861 16.5201L19.3246 17.6949C19.3036 17.6813 19.2962 17.6725 19.3146 17.6896C19.3161 17.691 19.3757 17.7482 19.4128 17.7807C19.5146 17.8695 19.7175 18.0243 20.0231 18.0462L20.1231 16.6497ZM20.0795 16.5158C19.7919 16.334 19.3563 16.2177 18.9207 16.4048L19.4733 17.6911C19.4261 17.7114 19.385 17.7117 19.362 17.7085C19.3414 17.7056 19.3327 17.7 19.3313 17.6992L20.0795 16.5158ZM18.9196 16.4053C18.7571 16.4754 18.6362 16.5698 18.5532 16.6428L19.4784 17.6936C19.4906 17.6828 19.4955 17.6795 19.495 17.6799C19.4939 17.6806 19.4868 17.6853 19.4744 17.6907L18.9196 16.4053ZM18.5491 16.6465C18.537 16.6573 18.5423 16.6497 18.5667 16.6381C18.5931 16.6255 18.6626 16.5987 18.7603 16.6088L18.6169 18.0014C19.0537 18.0464 19.367 17.7933 19.4825 17.6899L18.5491 16.6465ZM18.7619 16.6089C18.8127 16.6143 18.8549 16.6279 18.8853 16.6413C18.913 16.6535 18.9279 16.6642 18.9234 16.6612C18.9213 16.6598 18.9171 16.6568 18.9077 16.65C18.9028 16.6464 18.8985 16.6432 18.8918 16.6383C18.8857 16.6338 18.8783 16.6284 18.8704 16.6226C18.8404 16.6009 18.7886 16.5643 18.7245 16.5292L18.0524 17.7573C18.0383 17.7496 18.0335 17.7452 18.0497 17.7569C18.0539 17.7599 18.1016 17.7954 18.1354 17.8184C18.2213 17.8768 18.3852 17.977 18.6153 18.0013L18.7619 16.6089ZM18.7306 16.5325C18.3919 16.3428 17.9265 16.2829 17.5065 16.5439L18.2455 17.733C18.2058 17.7577 18.1576 17.7699 18.1134 17.7687C18.0731 17.7677 18.0507 17.7564 18.0463 17.7539L18.7306 16.5325ZM17.5034 16.5459C17.285 16.6832 17.1403 16.863 17.0465 17.0023L18.2079 17.7841C18.2248 17.759 18.2374 17.7438 18.2456 17.7351C18.2535 17.7267 18.2547 17.7272 18.2487 17.731L17.5034 16.5459ZM17.0479 17.0003C16.9302 17.1739 16.8484 17.352 16.7909 17.4768C16.7264 17.6167 16.6882 17.6987 16.6416 17.7716L17.8206 18.5265C17.9294 18.3566 18.0082 18.1803 18.0623 18.0628C18.1235 17.9302 18.162 17.8517 18.2066 17.7861L17.0479 17.0003ZM16.6411 17.7724C15.7497 19.1685 14.5579 20.4073 13.1593 21.4714L14.0071 22.5856C15.5154 21.438 16.8277 20.0817 17.8211 18.5258L16.6411 17.7724ZM13.1586 21.472C13.0565 21.5499 12.8913 21.6735 12.7466 21.8207C12.6015 21.9683 12.4227 22.1923 12.3468 22.4977L13.7055 22.8353C13.6958 22.8741 13.684 22.8642 13.7451 22.802C13.8066 22.7394 13.8868 22.6774 14.0078 22.585L13.1586 21.472ZM12.3474 22.4952C12.1585 23.2439 12.5547 23.7921 12.9507 24.1131C13.3276 24.4188 13.8082 24.6164 14.1274 24.7397L14.6317 23.4336C14.3127 23.3105 14.0207 23.1784 13.8324 23.0257C13.7439 22.9539 13.713 22.9045 13.704 22.8848C13.7015 22.8792 13.6959 22.8733 13.7049 22.8378L12.3474 22.4952ZM14.1263 24.7392C15.0653 25.1037 16.0481 25.3352 17.0206 25.4984L17.2522 24.1177C16.3373 23.9642 15.4542 23.7529 14.6329 23.4341L14.1263 24.7392ZM17.0211 25.4984C17.832 25.634 18.6457 25.6947 19.4604 25.6997L19.4689 24.2997C18.718 24.2951 17.9795 24.2392 17.2518 24.1176L17.0211 25.4984ZM19.4601 25.6996C20.0242 25.7034 20.5879 25.6772 21.1484 25.6226L21.0124 24.2292C20.4993 24.2792 19.9841 24.3031 19.4693 24.2997L19.4601 25.6996ZM21.1483 25.6226C21.9092 25.5484 22.6473 25.4072 23.3628 25.2501L23.0624 23.8827C22.3691 24.035 21.6929 24.1629 21.0125 24.2292L21.1483 25.6226ZM23.3627 25.2501C23.7915 25.156 24.7947 24.9436 25.548 24.5589C25.9096 24.3741 26.3547 24.0817 26.5724 23.6196C26.6911 23.3676 26.7336 23.0817 26.6717 22.7833C26.6121 22.4962 26.4651 22.2401 26.2751 22.0145L25.2042 22.9163C25.2913 23.0198 25.3014 23.07 25.3009 23.0678C25.3005 23.0657 25.2992 23.0565 25.3008 23.0436C25.3015 23.0377 25.3027 23.0326 25.3039 23.0287C25.305 23.0249 25.3059 23.0229 25.3059 23.023C25.2944 23.0474 25.2073 23.1608 24.9112 23.3121C24.3489 23.5993 23.5342 23.7791 23.0626 23.8826L23.3627 25.2501Z" fill="white" mask="url(#path-4-inside-1_1_8)"/>
</g>
<g filter="url(#filter3_d_1_8)">
<mask id="mask0_1_8" style="mask-type:luminance" maskUnits="userSpaceOnUse" x="13" y="16" width="13" height="10">
<path d="M25.2572 22.6226C25.0963 22.4042 24.8651 22.2215 24.6722 22.0478C24.0234 21.468 23.423 20.7731 22.9096 20.0732C22.4281 19.4167 22.0334 18.7167 21.6464 18.0015C21.571 17.8622 21.5046 17.7192 21.4318 17.5787C21.3015 17.3271 21.1559 17.0499 20.9273 16.8736C20.7076 16.7038 20.3998 16.7204 20.2146 16.9311C20.1303 17.0256 20.0434 17.1419 19.9042 17.1317C19.7471 17.1189 19.673 16.9592 19.5568 16.8736C19.4163 16.7727 19.2362 16.7319 19.0765 16.8098C19.0114 16.8417 18.9565 16.8877 18.9054 16.9388C18.8262 17.0193 18.7163 17.0997 18.5963 17.0857C18.4788 17.0716 18.4072 16.9707 18.3127 16.912C18.1582 16.8136 17.9806 16.7996 17.8286 16.9069C17.7303 16.9771 17.6549 17.0767 17.5936 17.1802C17.4404 17.4369 17.3663 17.7307 17.2194 17.9913C16.3291 19.5751 15.1464 20.9673 13.7733 22.1538C13.5626 22.3365 13.3097 22.5523 13.2471 22.8385C13.0657 23.6546 13.9228 24.0978 14.5256 24.3622C15.3571 24.7288 16.2385 24.9664 17.13 25.1362C17.8567 25.2742 18.5899 25.3368 19.3294 25.3419C19.8391 25.3457 20.3487 25.3189 20.8557 25.2627C21.5365 25.1873 22.2045 25.043 22.87 24.877C23.7206 24.6649 26.3045 24.0352 25.2572 22.6226" fill="white"/>
</mask>
<g mask="url(#mask0_1_8)">
<path d="M22.7563 19.524C22.6899 19.4026 22.6184 19.2928 22.5788 19.2353C22.5609 19.2098 22.543 19.1829 22.5251 19.1561C22.2441 18.7333 21.9836 18.3016 21.7269 17.8725C21.5187 17.525 21.3437 17.1546 21.0474 16.88C20.9235 16.7651 20.7779 16.599 20.5875 16.6156C20.5135 16.622 20.4113 16.6425 20.3423 16.6642C20.166 16.7191 19.9859 16.8085 19.8007 16.7651C19.5542 16.7076 19.346 16.5224 19.088 16.6233C18.9692 16.6693 18.8811 16.8072 18.7534 16.8277C18.5848 16.8532 18.5171 16.7038 18.3613 16.6808C18.2489 16.6629 18.1173 16.6859 18.0088 16.7025C17.7507 16.7421 17.6051 16.8749 17.4289 17.0678C17.2654 17.2479 17.1709 17.5148 17.0738 17.7371C16.9831 17.944 16.8452 18.1241 16.7443 18.3272C16.6319 18.5596 16.5016 18.7678 16.3777 18.9977C16.2717 19.1957 16.1197 19.3617 15.9983 19.5495C15.9294 19.6568 15.8604 19.7743 15.7825 19.8752C15.6484 20.0451 14.7709 20.7003 15.255 20.8932C15.6892 21.0669 16.1159 20.754 16.3866 20.427C16.5425 20.2392 16.6357 20.0029 16.8298 19.8446C17.1325 19.5968 17.3484 19.8433 17.3292 20.1409C17.2973 20.6326 17.0597 21.0707 16.8286 21.5024C16.6395 21.8537 16.195 22.4847 16.6306 22.8091C16.826 22.956 17.1326 22.9521 17.3305 22.8218C17.609 22.6354 17.7252 22.4004 17.858 22.1142C17.9768 21.8562 18.0752 21.5918 18.1991 21.3377C18.2859 21.1589 18.4698 20.7884 18.6972 20.7463C19.0765 20.6773 19.1161 21.2291 19.1519 21.459C19.1787 21.6251 19.1902 21.7975 19.3856 21.8703C19.7126 21.9916 20.2069 21.7962 20.1673 21.4105C20.1456 21.2036 19.9144 20.1639 20.4624 20.3146C20.7536 20.3951 21.0857 21.0452 21.2441 21.2815C21.3935 21.5037 21.5864 21.6838 21.8725 21.6404C21.884 21.6391 21.8942 21.6365 21.9069 21.6353C22.2237 21.5752 22.1484 21.0669 22.0577 20.8242C21.9504 20.5368 21.7792 20.2788 21.663 19.9978C21.6208 19.8995 21.5493 19.7679 21.5864 19.6606C21.6387 19.5125 21.7818 19.4959 21.9069 19.5699C22.0334 19.6466 22.1266 19.7781 22.2416 19.8688C22.3591 19.9595 22.4613 20.0757 22.6146 20.0949C23.0156 20.1409 22.9045 19.7998 22.7563 19.524Z" fill="white"/>
</g>
</g>
</g>
</g>
<defs>
<filter id="filter0_d_1_8" x="0" y="0" width="38" height="53" filterUnits="userSpaceOnUse" color-interpolation-filters="sRGB">
<feFlood flood-opacity="0" result="BackgroundImageFix"/>
<feColorMatrix in="SourceAlpha" type="matrix" values="0 0 0 0 0 0 0 0 0 0 0 0 0 0 0 0 0 0 127 0" result="hardAlpha"/>
<feOffset dy="2"/>
<feGaussianBlur stdDeviation="2"/>
<feComposite in2="hardAlpha" operator="out"/>
<feColorMatrix type="matrix" values="0 0 0 0 0 0 0 0 0 0 0 0 0 0 0 0 0 0 0.25 0"/>
<feBlend mode="normal" in2="BackgroundImageFix" result="effect1_dropShadow_1_8"/>
<feBlend mode="normal" in="SourceGraphic" in2="effect1_dropShadow_1_8" result="shape"/>
</filter>
<filter id="filter1_d_1_8" x="6" y="3" width="35" height="28" filterUnits="userSpaceOnUse" color-interpolation-filters="sRGB">
<feFlood flood-opacity="0" result="BackgroundImageFix"/>
<feColorMatrix in="SourceAlpha" type="matrix" values="0 0 0 0 0 0 0 0 0 0 0 0 0 0 0 0 0 0 127 0" result="hardAlpha"/>
<feOffset dx="4" dy="4"/>
<feGaussianBlur stdDeviation="5"/>
<feComposite in2="hardAlpha" operator="out"/>
<feColorMatrix type="matrix" values="0 0 0 0 0 0 0 0 0 0 0 0 0 0 0 0 0 0 0.8 0"/>
<feBlend mode="normal" in2="BackgroundImageFix" result="effect1_dropShadow_1_8"/>
<feBlend mode="normal" in="SourceGraphic" in2="effect1_dropShadow_1_8" result="shape"/>
</filter>
<filter id="filter2_d_1_8" x="7" y="11" width="33" height="28" filterUnits="userSpaceOnUse" color-interpolation-filters="sRGB">
<feFlood flood-opacity="0" result="BackgroundImageFix"/>
<feColorMatrix in="SourceAlpha" type="matrix" values="0 0 0 0 0 0 0 0 0 0 0 0 0 0 0 0 0 0 127 0" result="hardAlpha"/>
<feOffset dx="4" dy="4"/>
<feGaussianBlur stdDeviation="5"/>
<feComposite in2="hardAlpha" operator="out"/>
<feColorMatrix type="matrix" values="0 0 0 0 0 0 0 0 0 0 0 0 0 0 0 0 0 0 0.8 0"/>
<feBlend mode="normal" in2="BackgroundImageFix" result="effect1_dropShadow_1_8"/>
<feBlend mode="normal" in="SourceGraphic" in2="effect1_dropShadow_1_8" result="shape"/>
</filter>
<filter id="filter3_d_1_8" x="9.11063" y="10.7583" width="27.7809" height="26.1611" filterUnits="userSpaceOnUse" color-interpolation-filters="sRGB">
<feFlood flood-opacity="0" result="BackgroundImageFix"/>
<feColorMatrix in="SourceAlpha" type="matrix" values="0 0 0 0 0 0 0 0 0 0 0 0 0 0 0 0 0 0 127 0" result="hardAlpha"/>
<feOffset dx="4" dy="4"/>
<feGaussianBlur stdDeviation="5"/>
<feComposite in2="hardAlpha" operator="out"/>
<feColorMatrix type="matrix" values="0 0 0 0 0 0 0 0 0 0 0 0 0 0 0 0 0 0 0.8 0"/>
<feBlend mode="normal" in2="BackgroundImageFix" result="effect1_dropShadow_1_8"/>
<feBlend mode="normal" in="SourceGraphic" in2="effect1_dropShadow_1_8" result="shape"/>
</filter>
<clipPath id="clip0_1_8">
<rect x="4" y="2" width="30" height="30" rx="15" fill="white"/>
</clipPath>
</defs>
</svg>
