<svg width="38" height="53" viewBox="0 0 38 53" fill="none" xmlns="http://www.w3.org/2000/svg">
<g filter="url(#filter0_d_1_15)">
<path d="M19 47L31.9904 24.5H6.00962L19 47Z" fill="#EA7D32"/>
<g clip-path="url(#clip0_1_15)">
<rect x="4" y="2" width="30" height="30" rx="15" fill="#EA7D32"/>
<g filter="url(#filter1_d_1_15)">
<path d="M27.5275 19.7483L27.5117 19.7563C27.6937 19.9779 27.8521 20.2233 27.9708 20.4846L28.0421 20.635C28.6042 21.9729 28.2083 23.5167 27.1712 24.4825C26.2292 25.3454 24.915 25.575 23.6958 25.4167C22.54 25.2742 21.4792 24.5458 20.8696 23.5404C20.6875 23.2317 20.5292 22.8833 20.45 22.5271C20.3471 22.25 20.3154 21.9492 20.2917 21.6563C20.2204 20.3896 20.7271 19.0438 21.685 18.2521C21.2496 19.21 21.3525 20.4054 21.9937 21.2367L22.0808 21.3396C22.1917 21.4346 22.3262 21.4583 22.4529 21.4108C22.5717 21.3633 22.6667 21.2446 22.6667 21.1179L22.6112 20.9279C21.9146 19.0833 22.5004 16.9458 23.9808 15.7346C24.3846 15.4021 24.8833 15.1013 25.4058 14.9667C24.8675 16.0433 25.0417 17.4525 25.9046 18.2917C26.2687 18.6875 26.7121 18.9171 27.0842 19.2654L27.5275 19.7483ZM25.7225 23.4375L25.7146 23.4138C26.0708 23.105 26.2687 22.5746 26.2529 22.0996L26.2292 21.8542C26.0708 21.0625 25.3821 20.7933 24.9387 20.2154C24.8042 20.0413 24.6854 19.8196 24.5983 19.5979C24.4242 19.9938 24.4083 20.3658 24.4796 20.7933C24.5587 21.2446 24.7329 21.6325 24.6458 22.0996C24.5192 22.6142 24.1154 23.1288 23.4108 23.295C23.8067 23.6829 24.4479 23.9917 25.0892 23.77C25.295 23.7146 25.5562 23.5642 25.7225 23.4375ZM17.125 24.625V22.25H11.5833L15.5417 18.2917H13.1667L17.125 14.3333H14.75L18.7083 10.375L22.6667 14.3333H20.2917L21.7325 15.7742C19.9354 16.7558 18.7083 18.7588 18.7083 21.0625C18.7083 22.4004 19.1042 23.6354 19.8167 24.625H17.125Z" fill="white"/>
</g>
</g>
</g>
<defs>
<filter id="filter0_d_1_15" x="0" y="0" width="38" height="53" filterUnits="userSpaceOnUse" color-interpolation-filters="sRGB">
<feFlood flood-opacity="0" result="BackgroundImageFix"/>
<feColorMatrix in="SourceAlpha" type="matrix" values="0 0 0 0 0 0 0 0 0 0 0 0 0 0 0 0 0 0 127 0" result="hardAlpha"/>
<feOffset dy="2"/>
<feGaussianBlur stdDeviation="2"/>
<feComposite in2="hardAlpha" operator="out"/>
<feColorMatrix type="matrix" values="0 0 0 0 0 0 0 0 0 0 0 0 0 0 0 0 0 0 0.25 0"/>
<feBlend mode="normal" in2="BackgroundImageFix" result="effect1_dropShadow_1_15"/>
<feBlend mode="normal" in="SourceGraphic" in2="effect1_dropShadow_1_15" result="shape"/>
</filter>
<filter id="filter1_d_1_15" x="5.58333" y="4.375" width="36.7148" height="35.0882" filterUnits="userSpaceOnUse" color-interpolation-filters="sRGB">
<feFlood flood-opacity="0" result="BackgroundImageFix"/>
<feColorMatrix in="SourceAlpha" type="matrix" values="0 0 0 0 0 0 0 0 0 0 0 0 0 0 0 0 0 0 127 0" result="hardAlpha"/>
<feOffset dx="4" dy="4"/>
<feGaussianBlur stdDeviation="5"/>
<feComposite in2="hardAlpha" operator="out"/>
<feColorMatrix type="matrix" values="0 0 0 0 0 0 0 0 0 0 0 0 0 0 0 0 0 0 0.7 0"/>
<feBlend mode="normal" in2="BackgroundImageFix" result="effect1_dropShadow_1_15"/>
<feBlend mode="normal" in="SourceGraphic" in2="effect1_dropShadow_1_15" result="shape"/>
</filter>
<clipPath id="clip0_1_15">
<rect x="4" y="2" width="30" height="30" rx="15" fill="white"/>
</clipPath>
</defs>
</svg>
