<svg width="38" height="53" viewBox="0 0 38 53" fill="none" xmlns="http://www.w3.org/2000/svg">
<g filter="url(#filter0_d_1_5)">
<path d="M19 47L31.9904 24.5H6.00962L19 47Z" fill="#3D758B"/>
<g clip-path="url(#clip0_1_5)">
<rect x="4" y="2" width="30" height="30" rx="15" fill="#3D758B"/>
<g filter="url(#filter1_d_1_5)">
<path d="M12.9844 12.2969C12.9139 12.169 12.8762 12.0235 12.875 11.875C12.875 11.6313 12.9765 11.4306 13.1008 11.2806C13.2299 11.1326 13.3817 11.0093 13.5496 10.9159C13.8883 10.7191 14.3485 10.555 14.8796 10.4238C15.9497 10.1594 17.4075 10 19 10C20.5934 10 22.0502 10.1594 23.1204 10.4238C23.6515 10.555 24.1117 10.7181 24.4504 10.9159C24.6192 11.0153 24.7776 11.1344 24.8993 11.2806C25.0226 11.4306 25.125 11.6313 25.125 11.875C25.125 12.8228 24.8188 13.3863 24.5703 13.8456L24.4688 14.0359C24.3385 14.2705 24.2459 14.5269 24.1949 14.7944C24.1529 15.0707 24.1496 15.3523 24.1852 15.6297C24.2765 15.6147 24.3699 15.6311 24.4519 15.6764C24.534 15.7217 24.6006 15.7937 24.6421 15.882C24.6837 15.9704 24.6981 16.0705 24.6833 16.1682C24.6685 16.2658 24.6253 16.3559 24.5597 16.4256C24.5067 16.4819 24.444 16.5428 24.3716 16.6084C24.5501 17.6547 24.4486 18.4741 24.1091 19.15C23.7128 19.9375 23.032 20.4466 22.3416 20.89C22.1625 21.0044 21.9817 21.1181 21.7991 21.2313C20.5356 22.0113 19.2371 22.8147 18.531 24.7056C18.5066 24.771 18.4688 24.8296 18.4204 24.8771C18.372 24.9247 18.3142 24.9599 18.2513 24.9803C18.1885 25.0006 18.1221 25.0055 18.0572 24.9947C17.9923 24.9838 17.9306 24.9574 17.8765 24.9175L17.8756 24.9166L17.8739 24.9156L17.8704 24.9128L17.8616 24.9053C17.8172 24.8715 17.7743 24.8356 17.733 24.7975C17.2729 24.381 16.9182 23.8471 16.7014 23.245C16.5638 22.8566 16.4906 22.4454 16.4852 22.03C16.4142 21.9442 16.375 21.8335 16.375 21.7188V21.7019L16.382 21.6278C16.4017 21.4922 16.4591 21.3662 16.5465 21.2659C16.6253 20.8075 16.7845 20.3153 17.0479 19.7903C16.9716 19.7478 16.9088 19.6822 16.8671 19.6016C16.8255 19.5211 16.8069 19.4291 16.8137 19.3373C16.8205 19.2455 16.8524 19.1579 16.9054 19.0854C16.9584 19.0129 17.0302 18.9588 17.1118 18.9297C17.2873 18.8662 17.468 18.821 17.6516 18.7947L17.7829 18.6138C18.0323 18.28 18.1364 18.0147 18.1652 17.8066C18.1924 17.6057 18.1547 17.401 18.0585 17.2263C17.8406 16.7997 17.3454 16.3797 16.6471 15.8856C16.4774 15.7669 16.2998 15.6438 16.1143 15.5163L16.0101 15.445C15.6432 15.3615 15.2807 15.257 14.9243 15.1319C14.864 15.1104 14.8089 15.0752 14.7626 15.0287C14.7164 14.9821 14.6801 14.9253 14.6564 14.8623C14.6327 14.7992 14.6221 14.7314 14.6252 14.6635C14.6284 14.5956 14.6454 14.5293 14.6749 14.4691L14.4736 14.3003C13.8524 13.7594 13.2801 13.1125 12.9844 12.2969ZM14.7108 13.2822C14.8099 13.3797 14.9143 13.4759 15.024 13.5709C15.437 13.9281 15.8903 14.2478 16.3496 14.5647C17.6971 14.8619 19.5276 15.0334 21.1009 14.6959C21.1572 14.6838 21.2153 14.6837 21.2717 14.6956C21.3281 14.7075 21.3817 14.7312 21.4296 14.7653C21.4775 14.7995 21.5186 14.8433 21.5506 14.8945C21.5826 14.9456 21.6049 15.0031 21.6163 15.0634C21.6276 15.1238 21.6277 15.186 21.6166 15.2464C21.6055 15.3069 21.5833 15.3644 21.5515 15.4156C21.5196 15.4669 21.4787 15.511 21.4309 15.5453C21.3832 15.5796 21.3296 15.6035 21.2732 15.6156C20.2092 15.8444 19.0534 15.8594 17.9841 15.7628C18.3333 16.0684 18.6351 16.4022 18.8267 16.7763C19.0044 17.1259 19.091 17.5169 19.0306 17.9453C18.9857 18.2541 18.872 18.5619 18.6894 18.8688L18.8819 18.9184L18.8871 18.9203C19.308 19.0328 19.6422 19.12 20.1734 18.9297C20.2836 18.8903 20.4039 18.8994 20.5079 18.955C20.6118 19.0107 20.6909 19.1083 20.7277 19.2264C20.7645 19.3445 20.756 19.4734 20.704 19.5848C20.6521 19.6962 20.561 19.7809 20.4507 19.8203C19.6737 20.0969 19.1339 19.9525 18.6806 19.8316L18.6754 19.8297C18.4908 19.7748 18.3023 19.7362 18.1119 19.7144C17.7881 20.23 17.5886 20.6988 17.4766 21.1178C17.6003 21.1603 17.7359 21.2209 17.8835 21.2997C17.9353 21.327 17.9816 21.365 18.0196 21.4115C18.0577 21.458 18.0867 21.5122 18.1052 21.5708C18.1236 21.6295 18.131 21.6914 18.127 21.7531C18.1229 21.8148 18.1075 21.8751 18.0817 21.9304C18.0558 21.9857 18.02 22.035 17.9762 22.0754C17.9325 22.1158 17.8818 22.1465 17.8269 22.1658C17.772 22.1851 17.7142 22.1925 17.6566 22.1877C17.599 22.1829 17.5429 22.166 17.4915 22.1378C17.4489 22.1147 17.4057 22.0928 17.362 22.0722C17.3725 22.3956 17.4355 22.675 17.5195 22.9113C17.642 23.2572 17.8188 23.5356 17.9815 23.7419C18.8495 21.9578 20.2416 21.1038 21.3809 20.4044C21.5588 20.2963 21.7291 20.19 21.8919 20.0856C22.57 19.6506 23.0644 19.2513 23.3383 18.7056C23.5238 18.3372 23.627 17.8619 23.5658 17.1897C22.7026 17.6971 21.7346 17.965 20.75 17.9688C20.634 17.9688 20.5227 17.9194 20.4406 17.8315C20.3586 17.7435 20.3125 17.6243 20.3125 17.5C20.3125 17.3757 20.3586 17.2565 20.4406 17.1685C20.5227 17.0806 20.634 17.0313 20.75 17.0313C21.6836 17.026 22.5976 16.743 23.3899 16.2138L23.3837 16.1856C23.2656 15.5547 23.2613 15.0541 23.3348 14.6247C23.4083 14.1934 23.5561 13.8653 23.7031 13.5813L23.8177 13.3656C23.8749 13.2613 23.928 13.1591 23.977 13.0591C23.7232 13.1594 23.4345 13.2484 23.1195 13.3263C22.0511 13.5906 20.5942 13.75 19 13.75C17.4066 13.75 15.9497 13.5906 14.8796 13.3263C14.8225 13.3125 14.7662 13.2978 14.7108 13.2822ZM24.2185 11.875C24.1618 11.8212 24.0989 11.7755 24.0312 11.7391C23.7932 11.6003 23.4214 11.4606 22.9235 11.3378C21.9348 11.0931 20.5479 10.9375 19 10.9375C17.4521 10.9375 16.0652 11.0931 15.0765 11.3378C14.5786 11.4597 14.2068 11.6003 13.9688 11.7391C13.9011 11.7755 13.8382 11.8212 13.7815 11.875C13.8153 11.9113 13.8777 11.9566 13.9688 12.0109C14.2068 12.1497 14.5786 12.2894 15.0765 12.4122C16.0652 12.6569 17.4521 12.8125 19 12.8125C20.5479 12.8125 21.9348 12.6569 22.9235 12.4122C23.4214 12.2903 23.7932 12.1497 24.0312 12.0109C24.0989 11.9745 24.1618 11.9288 24.2185 11.875Z" fill="white"/>
</g>
</g>
</g>
<defs>
<filter id="filter0_d_1_5" x="0" y="0" width="38" height="53" filterUnits="userSpaceOnUse" color-interpolation-filters="sRGB">
<feFlood flood-opacity="0" result="BackgroundImageFix"/>
<feColorMatrix in="SourceAlpha" type="matrix" values="0 0 0 0 0 0 0 0 0 0 0 0 0 0 0 0 0 0 127 0" result="hardAlpha"/>
<feOffset dy="2"/>
<feGaussianBlur stdDeviation="2"/>
<feComposite in2="hardAlpha" operator="out"/>
<feColorMatrix type="matrix" values="0 0 0 0 0 0 0 0 0 0 0 0 0 0 0 0 0 0 0.25 0"/>
<feBlend mode="normal" in2="BackgroundImageFix" result="effect1_dropShadow_1_5"/>
<feBlend mode="normal" in="SourceGraphic" in2="effect1_dropShadow_1_5" result="shape"/>
</filter>
<filter id="filter1_d_1_5" x="6.875" y="4" width="32.25" height="35.0003" filterUnits="userSpaceOnUse" color-interpolation-filters="sRGB">
<feFlood flood-opacity="0" result="BackgroundImageFix"/>
<feColorMatrix in="SourceAlpha" type="matrix" values="0 0 0 0 0 0 0 0 0 0 0 0 0 0 0 0 0 0 127 0" result="hardAlpha"/>
<feOffset dx="4" dy="4"/>
<feGaussianBlur stdDeviation="5"/>
<feComposite in2="hardAlpha" operator="out"/>
<feColorMatrix type="matrix" values="0 0 0 0 0 0 0 0 0 0 0 0 0 0 0 0 0 0 1 0"/>
<feBlend mode="normal" in2="BackgroundImageFix" result="effect1_dropShadow_1_5"/>
<feBlend mode="normal" in="SourceGraphic" in2="effect1_dropShadow_1_5" result="shape"/>
</filter>
<clipPath id="clip0_1_5">
<rect x="4" y="2" width="30" height="30" rx="15" fill="white"/>
</clipPath>
</defs>
</svg>
