<svg width="38" height="53" viewBox="0 0 38 53" fill="none" xmlns="http://www.w3.org/2000/svg">
<g filter="url(#filter0_d_1_24)">
<path d="M19 47L31.9904 24.5H6.00962L19 47Z" fill="#19B89E"/>
<g clip-path="url(#clip0_1_24)">
<rect x="4" y="2" width="30" height="30" rx="15" fill="#19B89E"/>
<g filter="url(#filter1_d_1_24)">
<path d="M11.0359 21.314C11.0852 21.191 11.1814 21.0926 11.3033 21.0404C11.4252 20.9883 11.5628 20.9867 11.6859 21.036L13.4429 21.739C13.8004 21.882 14.1993 21.882 14.5569 21.739L15.5709 21.333C16.1669 21.0946 16.8318 21.0946 17.4279 21.333L18.4429 21.739C18.8004 21.882 19.1993 21.882 19.5569 21.739L20.5709 21.333C21.1669 21.0946 21.8318 21.0946 22.4279 21.333L23.4429 21.739C23.8004 21.882 24.1993 21.882 24.5569 21.739L26.3139 21.036C26.3751 21.01 26.4409 20.9964 26.5074 20.9961C26.574 20.9959 26.6399 21.0089 26.7013 21.0344C26.7628 21.0599 26.8185 21.0975 26.8653 21.1448C26.912 21.1921 26.9488 21.2483 26.9736 21.3101C26.9984 21.3719 27.0105 21.4379 27.0094 21.5045C27.0083 21.571 26.994 21.6366 26.9672 21.6975C26.9404 21.7584 26.9017 21.8134 26.8534 21.8591C26.8051 21.9049 26.7481 21.9405 26.6859 21.964L24.9279 22.667C24.3318 22.9054 23.6669 22.9054 23.0709 22.667L22.0569 22.261C21.6993 22.118 21.3004 22.118 20.9429 22.261L19.9279 22.667C19.3318 22.9054 18.6669 22.9054 18.0709 22.667L17.0569 22.261C16.6993 22.118 16.3004 22.118 15.9429 22.261L14.9279 22.667C14.3318 22.9054 13.6669 22.9054 13.0709 22.667L11.3139 21.964C11.1908 21.9146 11.0924 21.8184 11.0403 21.6966C10.9881 21.5747 10.9866 21.4371 11.0359 21.314ZM11.0359 23.314C11.0852 23.191 11.1814 23.0926 11.3033 23.0404C11.4252 22.9883 11.5628 22.9867 11.6859 23.036L13.4429 23.739C13.8004 23.882 14.1993 23.882 14.5569 23.739L15.5709 23.333C16.1669 23.0946 16.8318 23.0946 17.4279 23.333L18.4429 23.739C18.8004 23.882 19.1993 23.882 19.5569 23.739L20.5709 23.333C21.1669 23.0946 21.8318 23.0946 22.4279 23.333L23.4429 23.739C23.8004 23.882 24.1993 23.882 24.5569 23.739L26.3139 23.036C26.3751 23.01 26.4409 22.9964 26.5074 22.9961C26.574 22.9959 26.6399 23.0089 26.7013 23.0344C26.7628 23.0599 26.8185 23.0975 26.8653 23.1448C26.912 23.1921 26.9488 23.2483 26.9736 23.3101C26.9984 23.3719 27.0105 23.4379 27.0094 23.5045C27.0083 23.571 26.994 23.6366 26.9672 23.6975C26.9404 23.7584 26.9017 23.8134 26.8534 23.8591C26.8051 23.9049 26.7481 23.9405 26.6859 23.964L24.9279 24.667C24.3318 24.9054 23.6669 24.9054 23.0709 24.667L22.0569 24.261C21.6993 24.118 21.3004 24.118 20.9429 24.261L19.9279 24.667C19.3318 24.9054 18.6669 24.9054 18.0709 24.667L17.0569 24.261C16.6993 24.118 16.3004 24.118 15.9429 24.261L14.9279 24.667C14.3318 24.9054 13.6669 24.9054 13.0709 24.667L11.3139 23.964C11.1908 23.9146 11.0924 23.8184 11.0403 23.6966C10.9881 23.5747 10.9866 23.4371 11.0359 23.314ZM13.6619 17.08C13.2059 18.143 12.6679 19.178 11.8199 19.884C11.7176 19.9651 11.5877 20.0031 11.4578 19.9897C11.328 19.9763 11.2085 19.9127 11.125 19.8124C11.0414 19.7121 11.0004 19.5832 11.0106 19.453C11.0209 19.3229 11.0816 19.2019 11.1799 19.116C11.8319 18.572 12.2939 17.732 12.7439 16.686C12.8839 16.358 13.0249 16.006 13.1709 15.642C13.4729 14.888 13.7949 14.083 14.1809 13.334C14.7629 12.2 15.5279 11.105 16.6999 10.299C17.8769 9.49 19.4179 9 21.4999 9C22.9629 9 24.0109 9.4 24.6789 10.058C25.3489 10.718 25.5719 11.576 25.4979 12.36C25.4239 13.131 25.0569 13.876 24.4779 14.325C24.2142 14.5372 23.8981 14.6743 23.563 14.7219C23.2279 14.7694 22.8861 14.7256 22.5739 14.595C21.9239 15.237 21.6669 16.274 21.8639 17.209C22.0759 18.215 22.7839 19 23.9999 19H26.4999C26.6325 19 26.7596 19.0527 26.8534 19.1464C26.9472 19.2402 26.9999 19.3674 26.9999 19.5C26.9999 19.6326 26.9472 19.7598 26.8534 19.8536C26.7596 19.9473 26.6325 20 26.4999 20H23.9999C22.2159 20 21.1739 18.785 20.8859 17.415C20.6539 16.315 20.8909 15.042 21.6439 14.131L21.4999 14.06L20.7229 14.448C20.6535 14.4827 20.5769 14.5007 20.4994 14.5007C20.4218 14.5007 20.3453 14.4827 20.2759 14.448L19.2759 13.948C19.1615 13.8863 19.0756 13.7826 19.0365 13.6587C18.9973 13.5348 19.0079 13.4005 19.066 13.2843C19.1241 13.1681 19.2251 13.0791 19.3478 13.0361C19.4704 12.9931 19.6049 12.9995 19.7229 13.054L20.4999 13.442L21.2759 13.054C21.3453 13.0193 21.4218 13.0013 21.4994 13.0013C21.5769 13.0013 21.6535 13.0193 21.7229 13.054L22.7229 13.554L22.7569 13.572C23.1969 13.836 23.5669 13.767 23.8649 13.536C24.1929 13.281 24.4509 12.807 24.5019 12.266C24.5519 11.737 24.4019 11.19 23.9769 10.771C23.5519 10.352 22.7869 10.001 21.4999 10.001C19.5819 10.001 18.2479 10.449 17.2679 11.124C16.2829 11.8 15.6099 12.738 15.0699 13.79C14.7049 14.5 14.4149 15.223 14.1249 15.95C13.9749 16.326 13.8239 16.703 13.6619 17.08Z" fill="white"/>
</g>
</g>
</g>
<defs>
<filter id="filter0_d_1_24" x="0" y="0" width="38" height="53" filterUnits="userSpaceOnUse" color-interpolation-filters="sRGB">
<feFlood flood-opacity="0" result="BackgroundImageFix"/>
<feColorMatrix in="SourceAlpha" type="matrix" values="0 0 0 0 0 0 0 0 0 0 0 0 0 0 0 0 0 0 127 0" result="hardAlpha"/>
<feOffset dy="2"/>
<feGaussianBlur stdDeviation="2"/>
<feComposite in2="hardAlpha" operator="out"/>
<feColorMatrix type="matrix" values="0 0 0 0 0 0 0 0 0 0 0 0 0 0 0 0 0 0 0.25 0"/>
<feBlend mode="normal" in2="BackgroundImageFix" result="effect1_dropShadow_1_24"/>
<feBlend mode="normal" in="SourceGraphic" in2="effect1_dropShadow_1_24" result="shape"/>
</filter>
<filter id="filter1_d_1_24" x="5" y="3" width="36.0095" height="35.8458" filterUnits="userSpaceOnUse" color-interpolation-filters="sRGB">
<feFlood flood-opacity="0" result="BackgroundImageFix"/>
<feColorMatrix in="SourceAlpha" type="matrix" values="0 0 0 0 0 0 0 0 0 0 0 0 0 0 0 0 0 0 127 0" result="hardAlpha"/>
<feOffset dx="4" dy="4"/>
<feGaussianBlur stdDeviation="5"/>
<feComposite in2="hardAlpha" operator="out"/>
<feColorMatrix type="matrix" values="0 0 0 0 0 0 0 0 0 0 0 0 0 0 0 0 0 0 1 0"/>
<feBlend mode="normal" in2="BackgroundImageFix" result="effect1_dropShadow_1_24"/>
<feBlend mode="normal" in="SourceGraphic" in2="effect1_dropShadow_1_24" result="shape"/>
</filter>
<clipPath id="clip0_1_24">
<rect x="4" y="2" width="30" height="30" rx="15" fill="white"/>
</clipPath>
</defs>
</svg>
